<?xml version="1.0" encoding="UTF-8"?>
<!DOCTYPE svg PUBLIC "-//W3C//DTD SVG 1.1//EN" "http://www.w3.org/Graphics/SVG/1.1/DTD/svg11.dtd">
<svg version="1.2" xmlns="http://www.w3.org/2000/svg" xmlns:xlink="http://www.w3.org/1999/xlink" x="0" y="0" width="602" height="189" viewBox="0 0 602 189">
<style type="text/css"><![CDATA[
text { font:12px Dialog; }
]]></style>
<rect x="-1280" y="-1064" width="3144" height="2318" style="fill:rgb(255,255,255);stroke:none" />
<clipPath id="clip1"><path d="M15,15 L587,15 L587,174 L15,174 Z M261,64 C256.5817261,64 253,67.5817184 253,72 L253,116 C253,120.4182816 256.5817261,124 261,124 L359,124 C363.4182739,124 367,120.4182816 367,116 L367,72 C367,67.5817184 363.4182739,64 359,64 Z M261,64" /></clipPath>
<path d="M361,64 C372.3333435,44 389.3333435,34 412,34" style="fill:none;stroke:rgb(85,142,213)" clip-path="url(#clip1)" />
<clipPath id="clip2"><path d="M15,15 L587,15 L587,174 L15,174 Z M261,64 C256.5817261,64 253,67.5817184 253,72 L253,116 C253,120.4182816 256.5817261,124 261,124 L359,124 C363.4182739,124 367,120.4182816 367,116 L367,72 C367,67.5817184 363.4182739,64 359,64 Z M261,64" /></clipPath>
<path d="M361,124 C372.3333435,144 389.3333435,154 412,154" style="fill:none;stroke:rgb(85,142,213)" clip-path="url(#clip2)" />
<clipPath id="clip3"><path d="M15,15 L587,15 L587,174 L15,174 Z M261,64 C256.5817261,64 253,67.5817184 253,72 L253,116 C253,120.4182816 256.5817261,124 261,124 L359,124 C363.4182739,124 367,120.4182816 367,116 L367,72 C367,67.5817184 363.4182739,64 359,64 Z M261,64" /></clipPath>
<path d="M258.5,124 C247.0555573,144 229.8888855,154 207,154" style="fill:none;stroke:rgb(85,142,213)" clip-path="url(#clip3)" />
<clipPath id="clip4"><path d="M15,15 L587,15 L587,174 L15,174 Z M261,64 C256.5817261,64 253,67.5817184 253,72 L253,116 C253,120.4182816 256.5817261,124 261,124 L359,124 C363.4182739,124 367,120.4182816 367,116 L367,72 C367,67.5817184 363.4182739,64 359,64 Z M261,64" /></clipPath>
<path d="M258.5,64 C247.0555573,44 229.8888855,34 207,34" style="fill:none;stroke:rgb(85,142,213)" clip-path="url(#clip4)" />
<clipPath id="clip5"><path d="M249,60 L372,60 L372,129 L249,129 L249,60 Z" /></clipPath>
<path d="M261,64 C256.5817261,64 253,67.5817184 253,72 L253,116 C253,120.4182816 256.5817261,124 261,124 L359,124 C363.4182739,124 367,120.4182816 367,116 L367,72 C367,67.5817184 363.4182739,64 359,64 Z M261,64" style="fill:rgb(220,230,242);stroke:none" clip-path="url(#clip5)" />
<clipPath id="clip6"><path d="M249,60 L372,60 L372,129 L249,129 L249,60 Z" /></clipPath>
<path d="M261,64 C256.5817261,64 253,67.5817184 253,72 L253,116 C253,120.4182816 256.5817261,124 261,124 L359,124 C363.4182739,124 367,120.4182816 367,116 L367,72 C367,67.5817184 363.4182739,64 359,64 Z M261,64" style="fill:none;stroke:rgb(85,142,213);stroke-width:5" clip-path="url(#clip6)" />
<clipPath id="clip7"><path d="M285,80 L336,80 L336,109 L285,109 L285,80 Z" /></clipPath>
<path d="M298.265625,99.1757813 L297.3339844,96.1171875 L292.6494141,96.1171875 L291.7177734,99.1757813 L288.7822266,99.1757813 L293.3173828,86.2734375 L296.6484375,86.2734375 L301.2011719,99.1757813 Z M296.6835938,93.8320313 C295.8222656,91.0605316 295.3374023,89.4931641 295.2290039,89.1298828 C295.1206055,88.7666016 295.0429688,88.4794922 294.9960938,88.2685547 C294.8027344,89.0185547 294.2490234,90.8730316 293.3349609,93.8320313 Z M311.1591797,89.3496094 L311.1591797,90.7119141 L309.6210938,91.1074219 C309.9023438,91.546875 310.0429688,92.0390625 310.0429688,92.5839844 C310.0429688,93.6386795 309.675293,94.4604492 308.9399414,95.0493164 C308.2045898,95.6381836 307.1835938,95.9326172 305.8769531,95.9326172 L305.3935547,95.90625 L304.9980469,95.8623047 C304.7226563,96.0732422 304.5849609,96.3076172 304.5849609,96.5654297 C304.5849609,96.9521484 305.0771484,97.1455078 306.0615234,97.1455078 L307.7314453,97.1455078 C308.8095703,97.1455078 309.6313477,97.3769531 310.1967773,97.8398438 C310.762207,98.3027344 311.0449219,98.9824142 311.0449219,99.8789063 C311.0449219,101.0273514 310.565918,101.9179688 309.6079102,102.5507813 C308.6499023,103.1835938 307.2744141,103.5 305.4814453,103.5 C304.1103516,103.5 303.0629883,103.2612305 302.3393555,102.7836914 C301.6157227,102.3061523 301.2539063,101.6367264 301.2539063,100.7753906 C301.2539063,100.1835938 301.4384766,99.6884766 301.8076172,99.2900391 C302.1767578,98.8916016 302.71875,98.6074219 303.4335938,98.4375 C303.1582031,98.3203125 302.9179688,98.128418 302.7128906,97.8618164 C302.5078125,97.5952148 302.4052734,97.3125 302.4052734,97.0136719 C302.4052734,96.6386719 302.5136719,96.3266602 302.7304688,96.0776367 C302.9472656,95.8286133 303.2607422,95.5839844 303.6708984,95.34375 C303.1552734,95.1210938 302.746582,94.7636719 302.4448242,94.2714844 C302.1430664,93.7792969 301.9921875,93.1992188 301.9921875,92.53125 C301.9921875,91.4589767 302.3408203,90.6298828 303.0380859,90.0439453 C303.7353516,89.4580078 304.7314453,89.1650391 306.0263672,89.1650391 C306.3017578,89.1650391 306.628418,89.1899414 307.0063477,89.2397461 C307.3842773,89.2895508 307.6259766,89.3261719 307.7314453,89.3496094 Z M303.5742188,100.5644531 C303.5742188,100.9335938 303.7514648,101.2236328 304.105957,101.4345703 C304.4604492,101.6455078 304.9570313,101.7509766 305.5957031,101.7509766 C306.5566406,101.7509766 307.3095703,101.6191406 307.8544922,101.3554688 C308.3994141,101.0917969 308.671875,100.7314453 308.671875,100.2744141 C308.671875,99.9052734 308.5107422,99.6503906 308.1884766,99.5097656 C307.8662109,99.3691406 307.3681641,99.2988281 306.6943359,99.2988281 L305.3056641,99.2988281 C304.8134766,99.2988281 304.4018555,99.4145508 304.0708008,99.6459961 C303.7397461,99.8774414 303.5742188,100.1835938 303.5742188,100.5644531 Z M304.5498047,92.5664063 C304.5498047,93.0996094 304.6713867,93.5214844 304.9145508,93.8320313 C305.1577148,94.1425781 305.5283203,94.2978516 306.0263672,94.2978516 C306.5302734,94.2978516 306.8994141,94.1425781 307.1337891,93.8320313 C307.3681641,93.5214844 307.4853516,93.0996094 307.4853516,92.5664063 C307.4853516,91.3828049 306.9990234,90.7910156 306.0263672,90.7910156 C305.0419922,90.7910156 304.5498047,91.3828049 304.5498047,92.5664063 Z M312.6621094,86.8095703 C312.6621094,85.9365158 313.1484375,85.5 314.1210938,85.5 C315.09375,85.5 315.5800781,85.9365158 315.5800781,86.8095703 C315.5800781,87.2255859 315.4584961,87.5493164 315.215332,87.7807617 C314.972168,88.012207 314.6074219,88.1279297 314.1210938,88.1279297 C313.1484375,88.1279297 312.6621094,87.6884842 312.6621094,86.8095703 Z M315.4570313,99.1757813 L312.7763672,99.1757813 L312.7763672,89.3496094 L315.4570313,89.3496094 Z M320.9501953,99.1757813 L318.2695313,99.1757813 L318.2695313,85.5 L320.9501953,85.5 Z M327.8320313,91.0722656 C327.2636719,91.0722656 326.8183594,91.2524414 326.4960938,91.612793 C326.1738281,91.9731445 325.9892578,92.484375 325.9423828,93.1464844 L329.7041016,93.1464844 C329.6923828,92.484375 329.5195313,91.9731445 329.1855469,91.612793 C328.8515625,91.2524414 328.4003906,91.0722656 327.8320313,91.0722656 Z M328.2099609,99.3515625 C326.6279297,99.3515625 325.3916016,98.9150467 324.5009766,98.0419922 C323.6103516,97.1689377 323.1650391,95.9326248 323.1650391,94.3330078 C323.1650391,92.6865158 323.5766602,91.4135818 324.3999023,90.5141602 C325.2231445,89.6147385 326.3613281,89.1650391 327.8144531,89.1650391 C329.203125,89.1650391 330.2841797,89.5605469 331.0576172,90.3515625 C331.8310547,91.1425858 332.2177734,92.2353439 332.2177734,93.6298828 L332.2177734,94.9306641 L325.8808594,94.9306641 C325.9101563,95.6923828 326.1357422,96.2871094 326.5576172,96.7148438 C326.9794922,97.1425781 327.5712891,97.3564453 328.3330078,97.3564453 C328.9248047,97.3564453 329.484375,97.2949219 330.0117188,97.171875 C330.5390625,97.0488281 331.0898438,96.8525391 331.6640625,96.5830078 L331.6640625,98.6572266 C331.1953125,98.8916016 330.6943359,99.065918 330.1611328,99.1801758 C329.6279297,99.2944336 328.9775391,99.3515625 328.2099609,99.3515625 Z M332.9912109,99.1757813" style="fill:rgb(55,96,146);stroke:none" clip-path="url(#clip7)" />
<clipPath id="clip8"><path d="M410,14 L550,14 L550,55 L410,55 L410,14 Z" /></clipPath>
<path d="M417,16 C414.2385864,16 412,18.2385712 412,21 L412,47 C412,49.761425 414.2385864,52 417,52 L542,52 C544.7614136,52 547,49.761425 547,47 L547,21 C547,18.2385712 544.7614136,16 542,16 Z M417,16" style="fill:rgb(220,230,242);stroke:none" clip-path="url(#clip8)" />
<clipPath id="clip9"><path d="M410,14 L550,14 L550,55 L410,55 L410,14 Z" /></clipPath>
<path d="M417,16 C414.2385864,16 412,18.2385712 412,21 L412,47 C412,49.761425 414.2385864,52 417,52 L542,52 C544.7614136,52 547,49.761425 547,47 L547,21 C547,18.2385712 544.7614136,16 542,16 Z M417,16" style="fill:none;stroke:rgb(85,142,213);stroke-width:2" clip-path="url(#clip9)" />
<clipPath id="clip10"><path d="M424,23 L536,23 L536,46 L424,46 L424,23 Z" /></clipPath>
<path d="M433.2197266,31.3007813 C433.2197266,32.2402382 432.8991699,32.9628067 432.2580566,33.4685059 C431.6169434,33.974205 430.699707,34.2270508 429.5063477,34.2270508 L428.4145508,34.2270508 L428.4145508,37.8769531 L427.3354492,37.8769531 L427.3354492,28.5966797 L429.7412109,28.5966797 C432.0602417,28.5966797 433.2197266,29.4980392 433.2197266,31.3007813 Z M428.4145508,33.300293 L429.3857422,33.300293 C430.3421326,33.300293 431.0339966,33.1458359 431.4614258,32.8369141 C431.888855,32.5279922 432.1025391,32.0328827 432.1025391,31.3515625 C432.1025391,30.7379532 431.9015503,30.2809258 431.4995117,29.9804688 C431.0974731,29.6800079 430.4711914,29.5297852 429.6206055,29.5297852 L428.4145508,29.5297852 Z M438.1157227,38.0039063 C437.0874023,38.0039063 436.2759705,37.6907578 435.6813965,37.0644531 C435.0868225,36.4381485 434.7895508,35.5685272 434.7895508,34.4555664 C434.7895508,33.3341408 435.0656738,32.4433632 435.6179199,31.7832031 C436.170166,31.1230431 436.9117737,30.7929688 437.8427734,30.7929688 C438.7145386,30.7929688 439.4042969,31.07967 439.9121094,31.6530762 C440.4199219,32.2264824 440.6738281,32.9829063 440.6738281,33.9223633 L440.6738281,34.5888672 L435.8813477,34.5888672 C435.9024963,35.4056015 436.1087952,36.0255508 436.5002441,36.4487305 C436.8916931,36.8719101 437.4428711,37.0834961 438.1538086,37.0834961 C438.902832,37.0834961 439.6433716,36.9269218 440.3754883,36.6137695 L440.3754883,37.5532227 C440.0031128,37.7140312 439.6508179,37.8293457 439.3186035,37.8991699 C438.9863892,37.9689941 438.5854492,38.0039063 438.1157227,38.0039063 Z M437.8300781,31.675293 C437.2714844,31.675293 436.8261108,31.8572578 436.4938965,32.2211914 C436.1616821,32.585125 435.9659729,33.0886993 435.9067383,33.7319336 L439.5439453,33.7319336 C439.5439453,33.067543 439.395813,32.5586777 439.0996094,32.2053223 C438.8034058,31.8519669 438.3802185,31.675293 437.8300781,31.675293 Z M448.1816406,34.3920898 C448.1816406,35.5262108 447.8959961,36.4116974 447.324707,37.048584 C446.753418,37.6854706 445.9642029,38.0039063 444.9570313,38.0039063 C444.3349609,38.0039063 443.7827148,37.8579102 443.300293,37.565918 C442.8178711,37.2739258 442.4454956,36.8549843 442.1831055,36.309082 C441.9207153,35.7631798 441.7895508,35.1241913 441.7895508,34.3920898 C441.7895508,33.2579689 442.0730591,32.3745956 442.6401367,31.7419434 C443.2072144,31.1092911 443.9942932,30.7929688 445.0014648,30.7929688 C445.9747925,30.7929688 446.7481079,31.1166954 447.3215332,31.7641602 C447.8949585,32.4116249 448.1816406,33.2875938 448.1816406,34.3920898 Z M442.8813477,34.3920898 C442.8813477,35.2807655 443.059082,35.9578438 443.4145508,36.4233398 C443.7700195,36.8888359 444.2926331,37.121582 444.9824219,37.121582 C445.6722107,37.121582 446.1958618,36.8898964 446.5534668,36.4265137 C446.9110718,35.963131 447.0898438,35.2849998 447.0898438,34.3920898 C447.0898438,33.5076447 446.9110718,32.8358574 446.5534668,32.376709 C446.1958618,31.9175606 445.6679688,31.6879883 444.9697266,31.6879883 C444.2799377,31.6879883 443.7594604,31.9143867 443.4082031,32.3671875 C443.0569458,32.8199883 442.8813477,33.4949493 442.8813477,34.3920898 Z M453.4140625,38.0039063 C452.9612427,38.0039063 452.5476074,37.92033 452.1730957,37.7531738 C451.798584,37.5860176 451.484375,37.3289413 451.2304688,36.9819336 L451.1542969,36.9819336 C451.2050781,37.3881874 451.2304688,37.7732735 451.2304688,38.137207 L451.2304688,41 L450.1767578,41 L450.1767578,30.9199219 L451.0336914,30.9199219 L451.1796875,31.8720703 L451.2304688,31.8720703 C451.5012817,31.4912109 451.8165894,31.2161484 452.1762695,31.046875 C452.5359497,30.8776016 452.9485474,30.7929688 453.4140625,30.7929688 C454.3366089,30.7929688 455.048584,31.1082344 455.5500488,31.7387695 C456.0515137,32.3693047 456.3022461,33.2537384 456.3022461,34.3920898 C456.3022461,35.5346718 456.0473022,36.4222794 455.5373535,37.0549316 C455.0274048,37.6875839 454.3196716,38.0039063 453.4140625,38.0039063 Z M453.2617188,31.6879883 C452.5507813,31.6879883 452.0366211,31.8847618 451.7192383,32.2783203 C451.4018555,32.6718788 451.2389526,33.298172 451.2304688,34.1572266 L451.2304688,34.3920898 C451.2304688,35.3696327 451.3933716,36.0689278 451.7192383,36.4899902 C452.045105,36.9110527 452.567688,37.121582 453.2871094,37.121582 C453.888031,37.121582 454.3588257,36.8782578 454.6994629,36.3916016 C455.0401001,35.9049454 455.2104492,35.2342148 455.2104492,34.3793945 C455.2104492,33.511879 455.0401001,32.8464394 454.6994629,32.3830566 C454.3588257,31.9196739 453.8795776,31.6879883 453.2617188,31.6879883 Z M459.2304688,37.8769531 L458.1767578,37.8769531 L458.1767578,28 L459.2304688,28 Z M464.1157227,38.0039063 C463.0874023,38.0039063 462.2759705,37.6907578 461.6813965,37.0644531 C461.0868225,36.4381485 460.7895508,35.5685272 460.7895508,34.4555664 C460.7895508,33.3341408 461.0656738,32.4433632 461.6179199,31.7832031 C462.170166,31.1230431 462.9117737,30.7929688 463.8427734,30.7929688 C464.7145386,30.7929688 465.4042969,31.07967 465.9121094,31.6530762 C466.4199219,32.2264824 466.6738281,32.9829063 466.6738281,33.9223633 L466.6738281,34.5888672 L461.8813477,34.5888672 C461.9025269,35.4056015 462.1088257,36.0255508 462.5002441,36.4487305 C462.8916626,36.8719101 463.4428711,37.0834961 464.1538086,37.0834961 C464.902832,37.0834961 465.6433716,36.9269218 466.3754883,36.6137695 L466.3754883,37.5532227 C466.0031128,37.7140312 465.6508179,37.8293457 465.3186035,37.8991699 C464.9863892,37.9689941 464.5854492,38.0039063 464.1157227,38.0039063 Z M463.8300781,31.675293 C463.2714844,31.675293 462.8261108,31.8572578 462.4938965,32.2211914 C462.1616821,32.585125 461.9660034,33.0886993 461.9067383,33.7319336 L465.5439453,33.7319336 C465.5439453,33.067543 465.395813,32.5586777 465.0996094,32.2053223 C464.8034058,31.8519669 464.3802185,31.675293 463.8300781,31.675293 Z M477.1816406,34.3920898 C477.1816406,35.5262108 476.8959961,36.4116974 476.324707,37.048584 C475.753418,37.6854706 474.9642029,38.0039063 473.9570313,38.0039063 C473.3349609,38.0039063 472.7827148,37.8579102 472.300293,37.565918 C471.8178711,37.2739258 471.4454956,36.8549843 471.1831055,36.309082 C470.9207153,35.7631798 470.7895508,35.1241913 470.7895508,34.3920898 C470.7895508,33.2579689 471.0730591,32.3745956 471.6401367,31.7419434 C472.2072144,31.1092911 472.9942932,30.7929688 474.0014648,30.7929688 C474.9747925,30.7929688 475.7481079,31.1166954 476.3215332,31.7641602 C476.8949585,32.4116249 477.1816406,33.2875938 477.1816406,34.3920898 Z M471.8813477,34.3920898 C471.8813477,35.2807655 472.059082,35.9578438 472.4145508,36.4233398 C472.7700195,36.8888359 473.2926331,37.121582 473.9824219,37.121582 C474.6722107,37.121582 475.1958618,36.8898964 475.5534668,36.4265137 C475.9110718,35.963131 476.0898438,35.2849998 476.0898438,34.3920898 C476.0898438,33.5076447 475.9110718,32.8358574 475.5534668,32.376709 C475.1958618,31.9175606 474.6679688,31.6879883 473.9697266,31.6879883 C473.2799377,31.6879883 472.7594604,31.9143867 472.4082031,32.3671875 C472.0569458,32.8199883 471.8813477,33.4949493 471.8813477,34.3920898 Z M480.7001953,37.8769531 L478.0595703,30.9199219 L479.1894531,30.9199219 L480.6875,35.0458984 C481.026062,36.010746 481.2249146,36.637043 481.2841797,36.9248047 L481.3349609,36.9248047 C481.3815308,36.7005196 481.5285645,36.2360878 481.776123,35.5314941 C482.0236816,34.8269005 482.5791016,33.2897263 483.4423828,30.9199219 L484.5722656,30.9199219 L481.9316406,37.8769531 Z M489.1157227,38.0039063 C488.0874023,38.0039063 487.2759705,37.6907578 486.6813965,37.0644531 C486.0868225,36.4381485 485.7895508,35.5685272 485.7895508,34.4555664 C485.7895508,33.3341408 486.0656738,32.4433632 486.6179199,31.7832031 C487.170166,31.1230431 487.9117737,30.7929688 488.8427734,30.7929688 C489.7145386,30.7929688 490.4042969,31.07967 490.9121094,31.6530762 C491.4199219,32.2264824 491.6738281,32.9829063 491.6738281,33.9223633 L491.6738281,34.5888672 L486.8813477,34.5888672 C486.9025269,35.4056015 487.1088257,36.0255508 487.5002441,36.4487305 C487.8916626,36.8719101 488.4428711,37.0834961 489.1538086,37.0834961 C489.902832,37.0834961 490.6433716,36.9269218 491.3754883,36.6137695 L491.3754883,37.5532227 C491.0031128,37.7140312 490.6508179,37.8293457 490.3186035,37.8991699 C489.9863892,37.9689941 489.5854492,38.0039063 489.1157227,38.0039063 Z M488.8300781,31.675293 C488.2714844,31.675293 487.8261108,31.8572578 487.4938965,32.2211914 C487.1616821,32.585125 486.9660034,33.0886993 486.9067383,33.7319336 L490.5439453,33.7319336 C490.5439453,33.067543 490.395813,32.5586777 490.0996094,32.2053223 C489.8034058,31.8519669 489.3802185,31.675293 488.8300781,31.675293 Z M496.3505859,30.7929688 C496.6594849,30.7929688 496.9367065,30.8183594 497.1821289,30.8691406 L497.0361328,31.8466797 C496.7483521,31.7832031 496.4944458,31.7514648 496.2744141,31.7514648 C495.7115784,31.7514648 495.2302246,31.9799767 494.8303223,32.4370117 C494.4304199,32.8940468 494.2304688,33.4632111 494.2304688,34.1445313 L494.2304688,37.8769531 L493.1767578,37.8769531 L493.1767578,30.9199219 L494.0463867,30.9199219 L494.1669922,32.2084961 L494.2177734,32.2084961 C494.4758911,31.7556953 494.7869263,31.4065781 495.1508789,31.1611328 C495.5148315,30.9156876 495.9147339,30.7929688 496.3505859,30.7929688 Z M504.1918945,37.8769531 L503.112793,37.8769531 L503.112793,29.5551758 L500.1738281,29.5551758 L500.1738281,28.5966797 L507.1308594,28.5966797 L507.1308594,29.5551758 L504.1918945,29.5551758 Z M514.1816406,34.3920898 C514.1816406,35.5262108 513.8959961,36.4116974 513.324707,37.048584 C512.753418,37.6854706 511.9642029,38.0039063 510.9570313,38.0039063 C510.3349609,38.0039063 509.7827148,37.8579102 509.300293,37.565918 C508.8178711,37.2739258 508.4454956,36.8549843 508.1831055,36.309082 C507.9207153,35.7631798 507.7895508,35.1241913 507.7895508,34.3920898 C507.7895508,33.2579689 508.0730591,32.3745956 508.6401367,31.7419434 C509.2072144,31.1092911 509.9942932,30.7929688 511.0014648,30.7929688 C511.9747925,30.7929688 512.7481079,31.1166954 513.3215332,31.7641602 C513.8949585,32.4116249 514.1816406,33.2875938 514.1816406,34.3920898 Z M508.8813477,34.3920898 C508.8813477,35.2807655 509.059082,35.9578438 509.4145508,36.4233398 C509.7700195,36.8888359 510.2926331,37.121582 510.9824219,37.121582 C511.6722107,37.121582 512.1958618,36.8898964 512.5534668,36.4265137 C512.9110718,35.963131 513.0898438,35.2849998 513.0898438,34.3920898 C513.0898438,33.5076447 512.9110718,32.8358574 512.5534668,32.376709 C512.1958618,31.9175606 511.6679688,31.6879883 510.9697266,31.6879883 C510.2799377,31.6879883 509.7594604,31.9143867 509.4082031,32.3671875 C509.0569458,32.8199883 508.8813477,33.4949493 508.8813477,34.3920898 Z M522.1816406,34.3920898 C522.1816406,35.5262108 521.8959961,36.4116974 521.324707,37.048584 C520.753418,37.6854706 519.9642334,38.0039063 518.9570313,38.0039063 C518.3349609,38.0039063 517.7827148,37.8579102 517.300293,37.565918 C516.8178711,37.2739258 516.4454956,36.8549843 516.1831055,36.309082 C515.9207153,35.7631798 515.7895508,35.1241913 515.7895508,34.3920898 C515.7895508,33.2579689 516.0730591,32.3745956 516.6401367,31.7419434 C517.2072144,31.1092911 517.9942627,30.7929688 519.0014648,30.7929688 C519.9747925,30.7929688 520.7481079,31.1166954 521.3215332,31.7641602 C521.8949585,32.4116249 522.1816406,33.2875938 522.1816406,34.3920898 Z M516.8813477,34.3920898 C516.8813477,35.2807655 517.059082,35.9578438 517.4145508,36.4233398 C517.7700195,36.8888359 518.2926025,37.121582 518.9824219,37.121582 C519.6722412,37.121582 520.1958618,36.8898964 520.5534668,36.4265137 C520.9110718,35.963131 521.0898438,35.2849998 521.0898438,34.3920898 C521.0898438,33.5076447 520.9110718,32.8358574 520.5534668,32.376709 C520.1958618,31.9175606 519.6679688,31.6879883 518.9697266,31.6879883 C518.2799072,31.6879883 517.7594604,31.9143867 517.4082031,32.3671875 C517.0569458,32.8199883 516.8813477,33.4949493 516.8813477,34.3920898 Z M525.2304688,37.8769531 L524.1767578,37.8769531 L524.1767578,28 L525.2304688,28 Z M531.6645508,35.9790039 C531.6645508,36.6264687 531.4233398,37.1258125 530.940918,37.4770508 C530.4584961,37.828289 529.7814331,38.0039063 528.909668,38.0039063 C527.9871216,38.0039063 527.2677612,37.8579102 526.7514648,37.565918 L526.7514648,36.5883789 C527.0857544,36.7576523 527.444397,36.8909492 527.8273926,36.9882813 C528.2103882,37.0856133 528.5795898,37.1342773 528.9350586,37.1342773 C529.4852295,37.1342773 529.9083862,37.0464706 530.2045898,36.8708496 C530.5007935,36.6952286 530.6489258,36.4275742 530.6489258,36.0678711 C530.6489258,35.7970352 530.5314941,35.5653496 530.2966309,35.3728027 C530.0617676,35.1802559 529.6036987,34.9528008 528.9223633,34.6904297 C528.2749023,34.4492188 527.8146973,34.2386894 527.541748,34.0588379 C527.2687988,33.8789864 527.0656738,33.6748047 526.932373,33.4462891 C526.7990723,33.2177734 526.7324219,32.9448242 526.7324219,32.6274414 C526.7324219,32.0603828 526.9630737,31.6128769 527.4243164,31.2849121 C527.8855591,30.9569473 528.5181885,30.7929688 529.3222656,30.7929688 C530.0712891,30.7929688 530.8033447,30.9453125 531.5185547,31.25 L531.144043,32.1069336 C530.4458008,31.8191719 529.8131714,31.675293 529.2460938,31.675293 C528.7467651,31.675293 528.3701172,31.7535782 528.1162109,31.9101563 C527.8623047,32.0667343 527.7353516,32.2825508 527.7353516,32.5576172 C527.7353516,32.7438164 527.782959,32.902504 527.8781738,33.0336914 C527.9733887,33.1648788 528.12677,33.2897148 528.3383789,33.4082031 C528.5499878,33.5266914 528.9561768,33.6980782 529.5571289,33.9223633 C530.3823242,34.2228203 530.9398804,34.5253906 531.2297363,34.8300781 C531.5195923,35.1347656 531.6645508,35.5177383 531.6645508,35.9790039 Z M532.2612305,37.8769531" style="fill:rgb(23,55,94);stroke:none" clip-path="url(#clip10)" />
<clipPath id="clip11"><path d="M410,134 L588,134 L588,175 L410,175 L410,134 Z" /></clipPath>
<path d="M417,136 C414.2385864,136 412,138.2385712 412,141 L412,167 C412,169.7614288 414.2385864,172 417,172 L580,172 C582.7614136,172 585,169.7614288 585,167 L585,141 C585,138.2385712 582.7614136,136 580,136 Z M417,136" style="fill:rgb(220,230,242);stroke:none" clip-path="url(#clip11)" />
<clipPath id="clip12"><path d="M410,134 L588,134 L588,175 L410,175 L410,134 Z" /></clipPath>
<path d="M417,136 C414.2385864,136 412,138.2385712 412,141 L412,167 C412,169.7614288 414.2385864,172 417,172 L580,172 C582.7614136,172 585,169.7614288 585,167 L585,141 C585,138.2385712 582.7614136,136 580,136 Z M417,136" style="fill:none;stroke:rgb(85,142,213);stroke-width:2" clip-path="url(#clip12)" />
<clipPath id="clip13"><path d="M424,143 L574,143 L574,166 L424,166 L424,143 Z" /></clipPath>
<path d="M433.3640137,152.7988281 C433.3640137,153.7382813 433.043457,154.4608459 432.4023438,154.9665527 C431.7612305,155.4722595 430.8439941,155.7250977 429.6506348,155.7250977 L428.5588379,155.7250977 L428.5588379,159.375 L427.4797363,159.375 L427.4797363,150.0947266 L429.885498,150.0947266 C432.2045288,150.0947266 433.3640137,150.9960938 433.3640137,152.7988281 Z M428.5588379,154.7983398 L429.5300293,154.7983398 C430.4864197,154.7983398 431.1782837,154.6438904 431.6057129,154.3349609 C432.0331421,154.0260315 432.2468262,153.5309296 432.2468262,152.8496094 C432.2468262,152.2359924 432.0458374,151.7789764 431.6437988,151.4785156 C431.2417603,151.1780548 430.6154785,151.027832 429.7648926,151.027832 L428.5588379,151.027832 Z M438.494873,152.2910156 C438.803772,152.2910156 439.0809937,152.3164063 439.326416,152.3671875 L439.1804199,153.3447266 C438.8926392,153.28125 438.6387329,153.2495117 438.4187012,153.2495117 C437.8558655,153.2495117 437.3745117,153.4780273 436.9746094,153.9350586 C436.574707,154.3920898 436.3747559,154.9612579 436.3747559,155.6425781 L436.3747559,159.375 L435.3210449,159.375 L435.3210449,152.4179688 L436.1906738,152.4179688 L436.3112793,153.706543 L436.3620605,153.706543 C436.6202087,153.2537384 436.9312134,152.9046326 437.295166,152.6591797 C437.6591187,152.4137268 438.059021,152.2910156 438.494873,152.2910156 Z M446.3259277,155.8901367 C446.3259277,157.0242615 446.0402832,157.9097443 445.4689941,158.5466309 C444.8977051,159.1835175 444.10849,159.5019531 443.1013184,159.5019531 C442.479248,159.5019531 441.927002,159.355957 441.4445801,159.0639648 C440.9621582,158.7719727 440.5897827,158.3530273 440.3273926,157.8071289 C440.0650024,157.2612305 439.9338379,156.6222382 439.9338379,155.8901367 C439.9338379,154.756012 440.2173462,153.8726501 440.7844238,153.2399902 C441.3515015,152.6073303 442.1385803,152.2910156 443.145752,152.2910156 C444.1190796,152.2910156 444.892395,152.6147461 445.4658203,153.262207 C446.0392456,153.909668 446.3259277,154.7856445 446.3259277,155.8901367 Z M441.0256348,155.8901367 C441.0256348,156.7788086 441.2033691,157.4558868 441.5588379,157.9213867 C441.9143066,158.3868866 442.4369202,158.6196289 443.126709,158.6196289 C443.8164978,158.6196289 444.3401489,158.3879395 444.6977539,157.9245605 C445.0553589,157.4611816 445.2341309,156.7830505 445.2341309,155.8901367 C445.2341309,155.0056915 445.0553589,154.3339081 444.6977539,153.8747559 C444.3401489,153.4156036 443.8122559,153.1860352 443.1140137,153.1860352 C442.4242249,153.1860352 441.9037476,153.4124298 441.5524902,153.8652344 C441.2012329,154.3180389 441.0256348,154.9929962 441.0256348,155.8901367 Z M453.0563965,158.4418945 L452.9992676,158.4418945 C452.5126343,159.1486053 451.7847595,159.5019531 450.8156738,159.5019531 C449.9058228,159.5019531 449.1980591,159.190918 448.6923828,158.5688477 C448.1867065,157.9467773 447.9338379,157.0623474 447.9338379,155.9155273 C447.9338379,154.7687073 448.1877441,153.8779297 448.6955566,153.2431641 C449.2033691,152.6083984 449.9100647,152.2910156 450.8156738,152.2910156 C451.7593689,152.2910156 452.4829712,152.6337891 452.9865723,153.3193359 L453.0690918,153.3193359 L453.0246582,152.8178711 L452.9992676,152.3291016 L452.9992676,149.4980469 L454.0529785,149.4980469 L454.0529785,159.375 L453.1960449,159.375 Z M450.9489746,158.6196289 C451.668396,158.6196289 452.1899414,158.4239197 452.5136719,158.0324707 C452.8374023,157.6410217 452.9992676,157.0094452 452.9992676,156.1376953 L452.9992676,155.9155273 C452.9992676,154.9295197 452.8352661,154.2259979 452.5073242,153.8049316 C452.1793823,153.3838654 451.6557007,153.1733398 450.9362793,153.1733398 C450.3184204,153.1733398 449.84552,153.4134827 449.5175781,153.8937988 C449.1896362,154.374115 449.0256348,155.0522461 449.0256348,155.9282227 C449.0256348,156.8168945 449.1885376,157.4876251 449.5144043,157.9404297 C449.840271,158.3932343 450.3184204,158.6196289 450.9489746,158.6196289 Z M457.3112793,152.4179688 L457.3112793,156.9311523 C457.3112793,157.4982147 457.4403687,157.9213867 457.6984863,158.2006836 C457.956604,158.4799805 458.3607483,158.6196289 458.9108887,158.6196289 C459.6387634,158.6196289 460.1708984,158.4207458 460.5073242,158.0229492 C460.84375,157.6251526 461.0119629,156.9755859 461.0119629,156.0742188 L461.0119629,152.4179688 L462.0656738,152.4179688 L462.0656738,159.375 L461.1960449,159.375 L461.0437012,158.4418945 L460.9865723,158.4418945 C460.770752,158.784668 460.4713745,159.0470276 460.0883789,159.2290039 C459.7053833,159.4109802 459.2684937,159.5019531 458.7775879,159.5019531 C457.9312134,159.5019531 457.2975464,159.3009491 456.8764648,158.8989258 C456.4553833,158.4969025 456.244873,157.8536835 456.244873,156.9692383 L456.244873,152.4179688 Z M467.1013184,159.5019531 C466.0941467,159.5019531 465.3144531,159.1919861 464.762207,158.5720215 C464.2099609,157.9520569 463.9338379,157.0750427 463.9338379,155.940918 C463.9338379,154.7771759 464.2141724,153.8779297 464.7749023,153.2431641 C465.3356323,152.6083984 466.1343384,152.2910156 467.1711426,152.2910156 C467.5054321,152.2910156 467.8397827,152.3269806 468.1740723,152.3989258 C468.5083618,152.470871 468.770752,152.5554962 468.9611816,152.652832 L468.6374512,153.5478516 C468.4047241,153.4547577 468.1508179,153.3775177 467.8757324,153.3161621 C467.600647,153.2548065 467.3573608,153.2241211 467.145752,153.2241211 C465.7323303,153.2241211 465.0256348,154.1254883 465.0256348,155.9282227 C465.0256348,156.7830505 465.1980591,157.4389648 465.5429688,157.8959961 C465.8878784,158.3530273 466.3988342,158.581543 467.0759277,158.581543 C467.6557007,158.581543 468.2502441,158.4566956 468.8596191,158.2070313 L468.8596191,159.1401367 C468.394104,159.3813477 467.8080444,159.5019531 467.1013184,159.5019531 Z M472.5681152,158.6323242 C472.7543335,158.6323242 472.9341431,158.6185608 473.107666,158.5910645 C473.281189,158.5635681 473.4187012,158.5350037 473.5202637,158.5053711 L473.5202637,159.3115234 C473.4060059,159.3665466 473.237793,159.4120178 473.015625,159.447998 C472.793457,159.4839783 472.5935059,159.5019531 472.4157715,159.5019531 C471.0700684,159.5019531 470.3972168,158.7931366 470.3972168,157.3754883 L470.3972168,153.2368164 L469.4006348,153.2368164 L469.4006348,152.7290039 L470.3972168,152.2910156 L470.8415527,150.8056641 L471.4509277,150.8056641 L471.4509277,152.4179688 L473.4694824,152.4179688 L473.4694824,153.2368164 L471.4509277,153.2368164 L471.4509277,157.3310547 C471.4509277,157.75 471.550354,158.0716248 471.7492676,158.2958984 C471.9481812,158.5201721 472.2211304,158.6323242 472.5681152,158.6323242 Z M484.3259277,155.8901367 C484.3259277,157.0242615 484.0402832,157.9097443 483.4689941,158.5466309 C482.8977051,159.1835175 482.10849,159.5019531 481.1013184,159.5019531 C480.479248,159.5019531 479.927002,159.355957 479.4445801,159.0639648 C478.9621582,158.7719727 478.5897827,158.3530273 478.3273926,157.8071289 C478.0650024,157.2612305 477.9338379,156.6222382 477.9338379,155.8901367 C477.9338379,154.756012 478.2173462,153.8726501 478.7844238,153.2399902 C479.3515015,152.6073303 480.1385803,152.2910156 481.145752,152.2910156 C482.1190796,152.2910156 482.892395,152.6147461 483.4658203,153.262207 C484.0392456,153.909668 484.3259277,154.7856445 484.3259277,155.8901367 Z M479.0256348,155.8901367 C479.0256348,156.7788086 479.2033691,157.4558868 479.5588379,157.9213867 C479.9143066,158.3868866 480.4369202,158.6196289 481.126709,158.6196289 C481.8164978,158.6196289 482.3401489,158.3879395 482.6977539,157.9245605 C483.0553589,157.4611816 483.2341309,156.7830505 483.2341309,155.8901367 C483.2341309,155.0056915 483.0553589,154.3339081 482.6977539,153.8747559 C482.3401489,153.4156036 481.8122559,153.1860352 481.1140137,153.1860352 C480.4242249,153.1860352 479.9037476,153.4124298 479.5524902,153.8652344 C479.2012329,154.3180389 479.0256348,154.9929962 479.0256348,155.8901367 Z M487.8444824,159.375 L485.2038574,152.4179688 L486.3337402,152.4179688 L487.8317871,156.5439453 C488.1703491,157.5087891 488.3692017,158.1350861 488.4284668,158.4228516 L488.479248,158.4228516 C488.5258179,158.1985779 488.6728516,157.7341309 488.9204102,157.029541 C489.1679688,156.3249512 489.7233887,154.7877808 490.5866699,152.4179688 L491.7165527,152.4179688 L489.0759277,159.375 Z M496.2600098,159.5019531 C495.2316895,159.5019531 494.4202576,159.1888123 493.8256836,158.5625 C493.2311096,157.9361877 492.9338379,157.0665741 492.9338379,155.9536133 C492.9338379,154.8321838 493.2099609,153.9414063 493.762207,153.28125 C494.3144531,152.6210938 495.0560608,152.2910156 495.9870605,152.2910156 C496.8588257,152.2910156 497.548584,152.577713 498.0563965,153.151123 C498.564209,153.7245331 498.8181152,154.480957 498.8181152,155.4204102 L498.8181152,156.0869141 L494.0256348,156.0869141 C494.046814,156.903656 494.2531128,157.5235901 494.6445313,157.9467773 C495.0359497,158.3699646 495.5871582,158.581543 496.2980957,158.581543 C497.0471191,158.581543 497.7876587,158.4249725 498.5197754,158.1118164 L498.5197754,159.0512695 C498.1473999,159.2120667 497.795105,159.3273926 497.4628906,159.3972168 C497.1306763,159.467041 496.7297363,159.5019531 496.2600098,159.5019531 Z M495.9743652,153.1733398 C495.4157715,153.1733398 494.9703979,153.3553009 494.6381836,153.7192383 C494.3059692,154.0831757 494.1102905,154.5867462 494.0510254,155.2299805 L497.6882324,155.2299805 C497.6882324,154.5655823 497.5401001,154.0567322 497.2438965,153.7033691 C496.9476929,153.3500061 496.5245056,153.1733398 495.9743652,153.1733398 Z M503.494873,152.2910156 C503.803772,152.2910156 504.0809937,152.3164063 504.326416,152.3671875 L504.1804199,153.3447266 C503.8926392,153.28125 503.6387329,153.2495117 503.4187012,153.2495117 C502.8558655,153.2495117 502.3745117,153.4780273 501.9746094,153.9350586 C501.574707,154.3920898 501.3747559,154.9612579 501.3747559,155.6425781 L501.3747559,159.375 L500.3210449,159.375 L500.3210449,152.4179688 L501.1906738,152.4179688 L501.3112793,153.706543 L501.3620605,153.706543 C501.6201782,153.2537384 501.9312134,152.9046326 502.295166,152.6591797 C502.6591187,152.4137268 503.059021,152.2910156 503.494873,152.2910156 Z M515.8874512,154.6459961 C515.8874512,156.1779022 515.4716797,157.3490295 514.6401367,158.1594238 C513.8085938,158.9698181 512.6120605,159.375 511.0505371,159.375 L508.4797363,159.375 L508.4797363,150.0947266 L511.3234863,150.0947266 C512.7665405,150.0947266 513.8879395,150.4946289 514.6877441,151.2944336 C515.4875488,152.0942383 515.8874512,153.2114258 515.8874512,154.6459961 Z M514.744873,154.684082 C514.744873,153.4737854 514.4412842,152.5618591 513.8339844,151.9482422 C513.2266846,151.3346252 512.3243408,151.027832 511.126709,151.027832 L509.5588379,151.027832 L509.5588379,158.4418945 L510.8728027,158.4418945 C512.1593018,158.4418945 513.1262207,158.1255798 513.7736816,157.4929199 C514.4211426,156.86026 514.744873,155.923996 514.744873,154.684082 Z M523.3259277,155.8901367 C523.3259277,157.0242615 523.0402832,157.9097443 522.4689941,158.5466309 C521.8977051,159.1835175 521.1085205,159.5019531 520.1013184,159.5019531 C519.479248,159.5019531 518.927002,159.355957 518.4445801,159.0639648 C517.9621582,158.7719727 517.5897827,158.3530273 517.3273926,157.8071289 C517.0650024,157.2612305 516.9338379,156.6222382 516.9338379,155.8901367 C516.9338379,154.756012 517.2173462,153.8726501 517.7844238,153.2399902 C518.3515015,152.6073303 519.1385498,152.2910156 520.145752,152.2910156 C521.1190796,152.2910156 521.892395,152.6147461 522.4658203,153.262207 C523.0392456,153.909668 523.3259277,154.7856445 523.3259277,155.8901367 Z M518.0256348,155.8901367 C518.0256348,156.7788086 518.2033691,157.4558868 518.5588379,157.9213867 C518.9143066,158.3868866 519.4368896,158.6196289 520.126709,158.6196289 C520.8165283,158.6196289 521.3401489,158.3879395 521.6977539,157.9245605 C522.0553589,157.4611816 522.2341309,156.7830505 522.2341309,155.8901367 C522.2341309,155.0056915 522.0553589,154.3339081 521.6977539,153.8747559 C521.3401489,153.4156036 520.8122559,153.1860352 520.1140137,153.1860352 C519.4241943,153.1860352 518.9037476,153.4124298 518.5524902,153.8652344 C518.2012329,154.3180389 518.0256348,154.9929962 518.0256348,155.8901367 Z M528.1013184,159.5019531 C527.0941162,159.5019531 526.3144531,159.1919861 525.762207,158.5720215 C525.2099609,157.9520569 524.9338379,157.0750427 524.9338379,155.940918 C524.9338379,154.7771759 525.2141724,153.8779297 525.7749023,153.2431641 C526.3356323,152.6083984 527.1343384,152.2910156 528.1711426,152.2910156 C528.5054321,152.2910156 528.8397827,152.3269806 529.1740723,152.3989258 C529.5083618,152.470871 529.770752,152.5554962 529.9611816,152.652832 L529.6374512,153.5478516 C529.4047241,153.4547577 529.1508179,153.3775177 528.8757324,153.3161621 C528.600647,153.2548065 528.3573608,153.2241211 528.145752,153.2241211 C526.7322998,153.2241211 526.0256348,154.1254883 526.0256348,155.9282227 C526.0256348,156.7830505 526.1980591,157.4389648 526.5429688,157.8959961 C526.8878784,158.3530273 527.3988037,158.581543 528.0759277,158.581543 C528.6557007,158.581543 529.2502441,158.4566956 529.8596191,158.2070313 L529.8596191,159.1401367 C529.394104,159.3813477 528.8080444,159.5019531 528.1013184,159.5019531 Z M532.3112793,152.4179688 L532.3112793,156.9311523 C532.3112793,157.4982147 532.4403687,157.9213867 532.6984863,158.2006836 C532.956604,158.4799805 533.3607178,158.6196289 533.9108887,158.6196289 C534.6387939,158.6196289 535.1708984,158.4207458 535.5073242,158.0229492 C535.84375,157.6251526 536.0119629,156.9755859 536.0119629,156.0742188 L536.0119629,152.4179688 L537.0656738,152.4179688 L537.0656738,159.375 L536.1960449,159.375 L536.0437012,158.4418945 L535.9865723,158.4418945 C535.770752,158.784668 535.4713745,159.0470276 535.0883789,159.2290039 C534.7053833,159.4109802 534.2684937,159.5019531 533.7775879,159.5019531 C532.9312134,159.5019531 532.2975464,159.3009491 531.8764648,158.8989258 C531.4553833,158.4969025 531.244873,157.8536835 531.244873,156.9692383 L531.244873,152.4179688 Z M548.1887207,159.375 L548.1887207,154.8491211 C548.1887207,154.294754 548.0702515,153.8789978 547.833252,153.6018066 C547.5962524,153.3246155 547.2280884,153.1860352 546.7287598,153.1860352 C546.0728149,153.1860352 545.5883179,153.3743439 545.2751465,153.7509766 C544.9619751,154.1276093 544.8054199,154.7073517 544.8054199,155.4902344 L544.8054199,159.375 L543.751709,159.375 L543.751709,154.8491211 C543.751709,154.294754 543.6332397,153.8789978 543.3962402,153.6018066 C543.1592407,153.3246155 542.7890015,153.1860352 542.2854004,153.1860352 C541.6252441,153.1860352 541.1417847,153.3838654 540.8349609,153.779541 C540.5281372,154.1752167 540.3747559,154.8237305 540.3747559,155.7250977 L540.3747559,159.375 L539.3210449,159.375 L539.3210449,152.4179688 L540.1779785,152.4179688 L540.3493652,153.3701172 L540.4001465,153.3701172 C540.5990601,153.0315704 540.8793945,152.7670898 541.2412109,152.5766602 C541.6030273,152.3862305 542.0082397,152.2910156 542.4567871,152.2910156 C543.5443726,152.2910156 544.2553101,152.6845703 544.5895996,153.4716797 L544.6403809,153.4716797 C544.8477173,153.1077423 545.1481934,152.8199921 545.541748,152.6083984 C545.9353027,152.3968048 546.3838501,152.2910156 546.8874512,152.2910156 C547.6745605,152.2910156 548.263855,152.4930725 548.6552734,152.8972168 C549.0466919,153.3013611 549.2424316,153.9477539 549.2424316,154.8364258 L549.2424316,159.375 Z M554.2600098,159.5019531 C553.2316895,159.5019531 552.4202881,159.1888123 551.8256836,158.5625 C551.2310791,157.9361877 550.9338379,157.0665741 550.9338379,155.9536133 C550.9338379,154.8321838 551.2099609,153.9414063 551.762207,153.28125 C552.3144531,152.6210938 553.0560303,152.2910156 553.9870605,152.2910156 C554.8588257,152.2910156 555.548584,152.577713 556.0563965,153.151123 C556.564209,153.7245331 556.8181152,154.480957 556.8181152,155.4204102 L556.8181152,156.0869141 L552.0256348,156.0869141 C552.046814,156.903656 552.2531128,157.5235901 552.6445313,157.9467773 C553.0359497,158.3699646 553.5871582,158.581543 554.2980957,158.581543 C555.0471191,158.581543 555.7876587,158.4249725 556.5197754,158.1118164 L556.5197754,159.0512695 C556.1473999,159.2120667 555.795105,159.3273926 555.4628906,159.3972168 C555.1306763,159.467041 554.7297363,159.5019531 554.2600098,159.5019531 Z M553.9743652,153.1733398 C553.4157715,153.1733398 552.9703979,153.3553009 552.6381836,153.7192383 C552.3059692,154.0831757 552.1102905,154.5867462 552.0510254,155.2299805 L555.6882324,155.2299805 C555.6882324,154.5655823 555.5401001,154.0567322 555.2438965,153.7033691 C554.9476929,153.3500061 554.5245361,153.1733398 553.9743652,153.1733398 Z M563.0817871,159.375 L563.0817871,154.8745117 C563.0817871,154.3074493 562.9526978,153.8842773 562.6945801,153.6049805 C562.4364624,153.3256836 562.0323486,153.1860352 561.4821777,153.1860352 C560.7542725,153.1860352 560.2211304,153.3828125 559.8825684,153.7763672 C559.5440063,154.1699219 559.3747559,154.8194885 559.3747559,155.7250977 L559.3747559,159.375 L558.3210449,159.375 L558.3210449,152.4179688 L559.1779785,152.4179688 L559.3493652,153.3701172 L559.4001465,153.3701172 C559.6159668,153.0273438 559.9185181,152.7618103 560.3078613,152.5734863 C560.6972046,152.3851624 561.1309204,152.2910156 561.6091309,152.2910156 C562.4470215,152.2910156 563.0775757,152.4930725 563.5007324,152.8972168 C563.9238892,153.3013611 564.135498,153.9477539 564.135498,154.8364258 L564.135498,159.375 Z M568.5681152,158.6323242 C568.7542725,158.6323242 568.9342041,158.6185608 569.107666,158.5910645 C569.2811279,158.5635681 569.4187012,158.5350037 569.5202637,158.5053711 L569.5202637,159.3115234 C569.4060059,159.3665466 569.237793,159.4120178 569.015625,159.447998 C568.793457,159.4839783 568.5935059,159.5019531 568.4157715,159.5019531 C567.0700684,159.5019531 566.3972168,158.7931366 566.3972168,157.3754883 L566.3972168,153.2368164 L565.4006348,153.2368164 L565.4006348,152.7290039 L566.3972168,152.2910156 L566.8415527,150.8056641 L567.4509277,150.8056641 L567.4509277,152.4179688 L569.4694824,152.4179688 L569.4694824,153.2368164 L567.4509277,153.2368164 L567.4509277,157.3310547 C567.4509277,157.75 567.550415,158.0716248 567.7492676,158.2958984 C567.9481201,158.5201721 568.2210693,158.6323242 568.5681152,158.6323242 Z M569.7932129,159.375" style="fill:rgb(23,55,94);stroke:none" clip-path="url(#clip13)" />
<clipPath id="clip14"><path d="M14,134 L210,134 L210,175 L14,175 L14,134 Z" /></clipPath>
<path d="M21,136 C18.2385864,136 16,138.2385712 16,141 L16,167 C16,169.7614288 18.2385864,172 21,172 L202,172 C204.7614288,172 207,169.7614288 207,167 L207,141 C207,138.2385712 204.7614288,136 202,136 Z M21,136" style="fill:rgb(220,230,242);stroke:none" clip-path="url(#clip14)" />
<clipPath id="clip15"><path d="M14,134 L210,134 L210,175 L14,175 L14,134 Z" /></clipPath>
<path d="M21,136 C18.2385864,136 16,138.2385712 16,141 L16,167 C16,169.7614288 18.2385864,172 21,172 L202,172 C204.7614288,172 207,169.7614288 207,167 L207,141 C207,138.2385712 204.7614288,136 202,136 Z M21,136" style="fill:none;stroke:rgb(85,142,213);stroke-width:2" clip-path="url(#clip15)" />
<clipPath id="clip16"><path d="M28,143 L196,143 L196,166 L28,166 L28,143 Z" /></clipPath>
<path d="M35.6945801,150.6945801 C34.6747131,150.6945801 33.8696289,151.0341797 33.2792969,151.7133789 C32.6889648,152.3925781 32.3937988,153.3225098 32.3937988,154.5031738 C32.3937988,155.7176971 32.6783752,156.6560822 33.2475586,157.3183594 C33.8167419,157.9806366 34.6281738,158.3117676 35.6818848,158.3117676 C36.3293457,158.3117676 37.0677795,158.1954041 37.8972168,157.9626465 L37.8972168,158.9084473 C37.2539978,159.1496582 36.4605408,159.2702637 35.5168457,159.2702637 C34.1499634,159.2702637 33.0952148,158.8555603 32.3525391,158.026123 C31.6098633,157.1966858 31.2385254,156.018158 31.2385254,154.4904785 C31.2385254,153.5340881 31.4173279,152.6962128 31.7749023,151.9768066 C32.1324768,151.2574005 32.6487732,150.7030487 33.3237305,150.3137207 C33.9986877,149.9243927 34.7932129,149.7297363 35.7072754,149.7297363 C36.6805725,149.7297363 37.5311584,149.9074707 38.2590332,150.2629395 L37.802002,151.1896973 C37.0995178,150.8596191 36.3970642,150.6945801 35.6945801,150.6945801 Z M40.5524902,152.1862793 L40.5524902,156.6994629 C40.5524902,157.2665253 40.6815491,157.6896973 40.9396973,157.9689941 C41.1978455,158.248291 41.6019592,158.3879395 42.1520996,158.3879395 C42.8799744,158.3879395 43.4121094,158.1890564 43.7485352,157.7912598 C44.0849609,157.3934631 44.2531738,156.7438965 44.2531738,155.8425293 L44.2531738,152.1862793 L45.3068848,152.1862793 L45.3068848,159.1433105 L44.4372559,159.1433105 L44.2849121,158.2102051 L44.2277832,158.2102051 C44.0119629,158.5529785 43.7125549,158.8153381 43.3295898,158.9973145 C42.9466248,159.1792908 42.5096741,159.2702637 42.0187988,159.2702637 C41.1724548,159.2702637 40.5387268,159.0692596 40.1176758,158.6672363 C39.6966248,158.265213 39.486084,157.621994 39.486084,156.7375488 L39.486084,152.1862793 Z M52.0500488,157.2453613 C52.0500488,157.8928223 51.8088379,158.3921661 51.326416,158.7434082 C50.8439941,159.0946503 50.1669006,159.2702637 49.295166,159.2702637 C48.3726501,159.2702637 47.6532288,159.1242676 47.1369629,158.8322754 L47.1369629,157.8547363 C47.471283,158.0240173 47.8299255,158.1573181 48.2128906,158.2546387 C48.5958557,158.3519592 48.9650879,158.4006348 49.3205566,158.4006348 C49.870697,158.4006348 50.2938538,158.3128357 50.5900879,158.137207 C50.886322,157.9615784 51.0344238,157.6939392 51.0344238,157.3342285 C51.0344238,157.063385 50.9169922,156.8317108 50.6821289,156.6391602 C50.4472656,156.4466095 49.9891663,156.219162 49.3078613,155.9567871 C48.6604004,155.7155762 48.2001953,155.5050507 47.9272461,155.3251953 C47.6542969,155.14534 47.4511719,154.9411621 47.3178711,154.7126465 C47.1845703,154.4841309 47.1179199,154.2111816 47.1179199,153.8937988 C47.1179199,153.3267365 47.3485413,152.8792419 47.8098145,152.5512695 C48.2710876,152.2232971 48.903717,152.0593262 49.7077637,152.0593262 C50.4567871,152.0593262 51.1888733,152.2116699 51.9040527,152.5163574 L51.529541,153.373291 C50.8312988,153.0855255 50.1986389,152.9416504 49.6315918,152.9416504 C49.1322327,152.9416504 48.7556152,153.019928 48.501709,153.1765137 C48.2478027,153.3330994 48.1208496,153.5489044 48.1208496,153.8239746 C48.1208496,154.0101776 48.168457,154.1688538 48.2636719,154.3000488 C48.3588867,154.4312439 48.5122986,154.556076 48.723877,154.6745605 C48.9354553,154.793045 49.3417053,154.9644318 49.942627,155.1887207 C50.7678223,155.4891815 51.3253479,155.791748 51.6152344,156.0964355 C51.9051208,156.401123 52.0500488,156.7840881 52.0500488,157.2453613 Z M55.8093262,158.4006348 C55.9955292,158.4006348 56.1753693,158.3868713 56.348877,158.359375 C56.5223846,158.3318787 56.6599121,158.3033142 56.7614746,158.2736816 L56.7614746,159.079834 C56.6472168,159.1348572 56.4790039,159.1803284 56.2568359,159.2163086 C56.034668,159.2522888 55.8347168,159.2702637 55.6569824,159.2702637 C54.3112793,159.2702637 53.6384277,158.5614471 53.6384277,157.1437988 L53.6384277,153.005127 L52.6418457,153.005127 L52.6418457,152.4973145 L53.6384277,152.0593262 L54.0827637,150.5739746 L54.6921387,150.5739746 L54.6921387,152.1862793 L56.7106934,152.1862793 L56.7106934,153.005127 L54.6921387,153.005127 L54.6921387,157.0993652 C54.6921387,157.5183105 54.7915802,157.83992 54.9904785,158.064209 C55.1893768,158.2884827 55.462326,158.4006348 55.8093262,158.4006348 Z M64.5671387,155.6584473 C64.5671387,156.792572 64.2814941,157.6780548 63.7102051,158.3149414 C63.138916,158.951828 62.3497009,159.2702637 61.3425293,159.2702637 C60.720459,159.2702637 60.1682129,159.1242676 59.685791,158.8322754 C59.2033691,158.5402832 58.8309784,158.1213379 58.5686035,157.5754395 C58.3062286,157.029541 58.1750488,156.3905487 58.1750488,155.6584473 C58.1750488,154.5243225 58.4585724,153.6409607 59.0256348,153.0083008 C59.5926971,152.3756409 60.3797913,152.0593262 61.3869629,152.0593262 C62.3602753,152.0593262 63.1336212,152.3830566 63.7070313,153.0305176 C64.2804413,153.6779785 64.5671387,154.5539551 64.5671387,155.6584473 Z M59.2668457,155.6584473 C59.2668457,156.5471191 59.4445801,157.2241974 59.8000488,157.6896973 C60.1555176,158.1551971 60.6781311,158.3879395 61.3679199,158.3879395 C62.0577087,158.3879395 62.5813751,158.15625 62.9389648,157.6928711 C63.2965546,157.2294922 63.4753418,156.5513611 63.4753418,155.6584473 C63.4753418,154.7740021 63.2965546,154.1022186 62.9389648,153.6430664 C62.5813751,153.1839142 62.0534668,152.9543457 61.3552246,152.9543457 C60.6654358,152.9543457 60.1449432,153.1807404 59.7937012,153.6335449 C59.4424591,154.0863495 59.2668457,154.7613068 59.2668457,155.6584473 Z M75.4299316,159.1433105 L75.4299316,154.6174316 C75.4299316,154.0630646 75.3114471,153.6473083 75.0744629,153.3701172 C74.8374786,153.092926 74.4693146,152.9543457 73.9699707,152.9543457 C73.3140411,152.9543457 72.8295135,153.1426544 72.5163574,153.5192871 C72.2032013,153.8959198 72.0466309,154.4756622 72.0466309,155.2585449 L72.0466309,159.1433105 L70.9929199,159.1433105 L70.9929199,154.6174316 C70.9929199,154.0630646 70.8744354,153.6473083 70.6374512,153.3701172 C70.4004669,153.092926 70.0301971,152.9543457 69.5266113,152.9543457 C68.8664551,152.9543457 68.3829803,153.1521759 68.0761719,153.5478516 C67.7693634,153.9435272 67.6159668,154.592041 67.6159668,155.4934082 L67.6159668,159.1433105 L66.5622559,159.1433105 L66.5622559,152.1862793 L67.4191895,152.1862793 L67.5905762,153.1384277 L67.6413574,153.1384277 C67.8402557,152.799881 68.1206055,152.5354004 68.4824219,152.3449707 C68.8442383,152.154541 69.2494354,152.0593262 69.697998,152.0593262 C70.7855682,152.0593262 71.4965057,152.4528809 71.8308105,153.2399902 L71.8815918,153.2399902 C72.0889435,152.8760529 72.3894043,152.5883026 72.782959,152.376709 C73.1765137,152.1651154 73.6250763,152.0593262 74.1286621,152.0593262 C74.9157715,152.0593262 75.5050507,152.2613831 75.8964844,152.6655273 C76.2879181,153.0696716 76.4836426,153.7160645 76.4836426,154.6047363 L76.4836426,159.1433105 Z M81.5012207,159.2702637 C80.4729004,159.2702637 79.6614685,158.9571228 79.0668945,158.3308105 C78.4723206,157.7044983 78.1750488,156.8348846 78.1750488,155.7219238 C78.1750488,154.6004944 78.4511719,153.7097168 79.003418,153.0495605 C79.5556641,152.3894043 80.2972717,152.0593262 81.2282715,152.0593262 C82.1000214,152.0593262 82.7897949,152.3460236 83.2976074,152.9194336 C83.8054199,153.4928436 84.0593262,154.2492676 84.0593262,155.1887207 L84.0593262,155.8552246 L79.2668457,155.8552246 C79.2880096,156.6719666 79.4943085,157.2919006 79.8857422,157.7150879 C80.2771759,158.1382751 80.8283691,158.3498535 81.5393066,158.3498535 C82.2883301,158.3498535 83.0288849,158.1932831 83.7609863,157.880127 L83.7609863,158.8195801 C83.3885956,158.9803772 83.0363007,159.0957031 82.7041016,159.1655273 C82.3719025,159.2353516 81.9709473,159.2702637 81.5012207,159.2702637 Z M81.2155762,152.9416504 C80.6569824,152.9416504 80.2115936,153.1236115 79.8793945,153.4875488 C79.5471954,153.8514862 79.3514862,154.3550568 79.2922363,154.998291 L82.9294434,154.998291 C82.9294434,154.3338928 82.7813263,153.8250427 82.4851074,153.4716797 C82.1888885,153.1183167 81.7657166,152.9416504 81.2155762,152.9416504 Z M88.736084,152.0593262 C89.0449982,152.0593262 89.3221893,152.0847168 89.567627,152.135498 L89.4216309,153.1130371 C89.1338654,153.0495605 88.8799591,153.0178223 88.6599121,153.0178223 C88.0970764,153.0178223 87.6157227,153.2463379 87.2158203,153.7033691 C86.815918,154.1604004 86.6159668,154.7295685 86.6159668,155.4108887 L86.6159668,159.1433105 L85.5622559,159.1433105 L85.5622559,152.1862793 L86.4318848,152.1862793 L86.5524902,153.4748535 L86.6032715,153.4748535 C86.8614044,153.022049 87.1724396,152.6729431 87.536377,152.4274902 C87.9003143,152.1820374 88.3002167,152.0593262 88.736084,152.0593262 Z M94.8000488,159.1433105 L93.7209473,159.1433105 L93.7209473,149.8630371 L98.8942871,149.8630371 L98.8942871,150.8215332 L94.8000488,150.8215332 L94.8000488,154.2175293 L98.6467285,154.2175293 L98.6467285,155.1760254 L94.8000488,155.1760254 Z M100.7209473,149.8630371 L103.3425293,149.8630371 C104.5739746,149.8630371 105.4647522,150.0471191 106.0148926,150.4152832 C106.565033,150.7834473 106.8400879,151.3653107 106.8400879,152.1608887 C106.8400879,152.7110291 106.6866913,153.1648712 106.3798828,153.5224609 C106.0730743,153.8800507 105.6255798,154.1117401 105.0373535,154.2175293 L105.0373535,154.2810059 C106.4465332,154.5222168 107.151123,155.2627716 107.151123,156.5026855 C107.151123,157.3321228 106.8707733,157.9795685 106.3100586,158.4450684 C105.7493439,158.9105682 104.9654236,159.1433105 103.958252,159.1433105 L100.7209473,159.1433105 Z M101.8000488,153.8366699 L103.5773926,153.8366699 C104.3391113,153.8366699 104.8871307,153.7171326 105.2214355,153.4780273 C105.5557404,153.2389221 105.7229004,152.8358612 105.7229004,152.2687988 C105.7229004,151.748291 105.5366974,151.3727264 105.1643066,151.1420898 C104.7919159,150.9114532 104.1994629,150.7961426 103.3869629,150.7961426 L101.8000488,150.7961426 Z M101.8000488,154.7507324 L101.8000488,158.2229004 L103.736084,158.2229004 C104.4851074,158.2229004 105.048996,158.0779724 105.4277344,157.7880859 C105.8064728,157.4981995 105.9958496,157.0443573 105.9958496,156.4265137 C105.9958496,155.8509827 105.8022461,155.4278259 105.4150391,155.1569824 C105.027832,154.8861389 104.4385681,154.7507324 103.6472168,154.7507324 Z M117.5671387,155.6584473 C117.5671387,156.792572 117.2814941,157.6780548 116.7102051,158.3149414 C116.138916,158.951828 115.3497009,159.2702637 114.3425293,159.2702637 C113.720459,159.2702637 113.1682129,159.1242676 112.685791,158.8322754 C112.2033691,158.5402832 111.8309784,158.1213379 111.5686035,157.5754395 C111.3062286,157.029541 111.1750488,156.3905487 111.1750488,155.6584473 C111.1750488,154.5243225 111.4585724,153.6409607 112.0256348,153.0083008 C112.5926971,152.3756409 113.3797913,152.0593262 114.3869629,152.0593262 C115.3602753,152.0593262 116.1336212,152.3830566 116.7070313,153.0305176 C117.2804413,153.6779785 117.5671387,154.5539551 117.5671387,155.6584473 Z M112.2668457,155.6584473 C112.2668457,156.5471191 112.4445801,157.2241974 112.8000488,157.6896973 C113.1555176,158.1551971 113.6781311,158.3879395 114.3679199,158.3879395 C115.0577087,158.3879395 115.5813751,158.15625 115.9389648,157.6928711 C116.2965546,157.2294922 116.4753418,156.5513611 116.4753418,155.6584473 C116.4753418,154.7740021 116.2965546,154.1022186 115.9389648,153.6430664 C115.5813751,153.1839142 115.0534668,152.9543457 114.3552246,152.9543457 C113.6654358,152.9543457 113.1449432,153.1807404 112.7937012,153.6335449 C112.4424591,154.0863495 112.2668457,154.7613068 112.2668457,155.6584473 Z M121.0856934,159.1433105 L118.4450684,152.1862793 L119.5749512,152.1862793 L121.072998,156.3122559 C121.4115448,157.2770996 121.6104279,157.9033966 121.6696777,158.1911621 L121.720459,158.1911621 C121.7670135,157.9668732 121.9140625,157.5024414 122.1616211,156.7978516 C122.4091797,156.0932617 122.9645996,154.5560913 123.8278809,152.1862793 L124.9577637,152.1862793 L122.3171387,159.1433105 Z M129.5012207,159.2702637 C128.4729004,159.2702637 127.6614685,158.9571228 127.0668945,158.3308105 C126.4723206,157.7044983 126.1750488,156.8348846 126.1750488,155.7219238 C126.1750488,154.6004944 126.4511719,153.7097168 127.003418,153.0495605 C127.5556641,152.3894043 128.2972717,152.0593262 129.2282715,152.0593262 C130.1000214,152.0593262 130.7897949,152.3460236 131.2976074,152.9194336 C131.8054199,153.4928436 132.0593262,154.2492676 132.0593262,155.1887207 L132.0593262,155.8552246 L127.2668457,155.8552246 C127.2880096,156.6719666 127.4943085,157.2919006 127.8857422,157.7150879 C128.2771759,158.1382751 128.8283691,158.3498535 129.5393066,158.3498535 C130.2883301,158.3498535 131.0288849,158.1932831 131.7609863,157.880127 L131.7609863,158.8195801 C131.3885956,158.9803772 131.0363007,159.0957031 130.7041016,159.1655273 C130.3719025,159.2353516 129.9709473,159.2702637 129.5012207,159.2702637 Z M129.2155762,152.9416504 C128.6569824,152.9416504 128.2115936,153.1236115 127.8793945,153.4875488 C127.5471954,153.8514862 127.3514862,154.3550568 127.2922363,154.998291 L130.9294434,154.998291 C130.9294434,154.3338928 130.7813263,153.8250427 130.4851074,153.4716797 C130.1888885,153.1183167 129.7657166,152.9416504 129.2155762,152.9416504 Z M136.736084,152.0593262 C137.0449982,152.0593262 137.3221893,152.0847168 137.567627,152.135498 L137.4216309,153.1130371 C137.1338654,153.0495605 136.8799591,153.0178223 136.6599121,153.0178223 C136.0970764,153.0178223 135.6157227,153.2463379 135.2158203,153.7033691 C134.815918,154.1604004 134.6159668,154.7295685 134.6159668,155.4108887 L134.6159668,159.1433105 L133.5622559,159.1433105 L133.5622559,152.1862793 L134.4318848,152.1862793 L134.5524902,153.4748535 L134.6032715,153.4748535 C134.8614044,153.022049 135.1724396,152.6729431 135.536377,152.4274902 C135.9003143,152.1820374 136.3002167,152.0593262 136.736084,152.0593262 Z M145.6945801,150.6945801 C144.6747131,150.6945801 143.8696289,151.0341797 143.2792969,151.7133789 C142.6889648,152.3925781 142.3937988,153.3225098 142.3937988,154.5031738 C142.3937988,155.7176971 142.6783752,156.6560822 143.2475586,157.3183594 C143.8167419,157.9806366 144.6281738,158.3117676 145.6818848,158.3117676 C146.3293457,158.3117676 147.0677795,158.1954041 147.8972168,157.9626465 L147.8972168,158.9084473 C147.2539825,159.1496582 146.4605408,159.2702637 145.5168457,159.2702637 C144.1499786,159.2702637 143.0952148,158.8555603 142.3525391,158.026123 C141.6098633,157.1966858 141.2385254,156.018158 141.2385254,154.4904785 C141.2385254,153.5340881 141.4173126,152.6962128 141.7749023,151.9768066 C142.1324921,151.2574005 142.6487579,150.7030487 143.3237305,150.3137207 C143.998703,149.9243927 144.7932129,149.7297363 145.7072754,149.7297363 C146.6805878,149.7297363 147.5311584,149.9074707 148.2590332,150.2629395 L147.802002,151.1896973 C147.0995178,150.8596191 146.3970642,150.6945801 145.6945801,150.6945801 Z M155.5671387,155.6584473 C155.5671387,156.792572 155.2814941,157.6780548 154.7102051,158.3149414 C154.138916,158.951828 153.3497009,159.2702637 152.3425293,159.2702637 C151.720459,159.2702637 151.1682129,159.1242676 150.685791,158.8322754 C150.2033691,158.5402832 149.8309784,158.1213379 149.5686035,157.5754395 C149.3062286,157.029541 149.1750488,156.3905487 149.1750488,155.6584473 C149.1750488,154.5243225 149.4585724,153.6409607 150.0256348,153.0083008 C150.5926971,152.3756409 151.3797913,152.0593262 152.3869629,152.0593262 C153.3602753,152.0593262 154.1336212,152.3830566 154.7070313,153.0305176 C155.2804413,153.6779785 155.5671387,154.5539551 155.5671387,155.6584473 Z M150.2668457,155.6584473 C150.2668457,156.5471191 150.4445801,157.2241974 150.8000488,157.6896973 C151.1555176,158.1551971 151.6781311,158.3879395 152.3679199,158.3879395 C153.0577087,158.3879395 153.5813751,158.15625 153.9389648,157.6928711 C154.2965546,157.2294922 154.4753418,156.5513611 154.4753418,155.6584473 C154.4753418,154.7740021 154.2965546,154.1022186 153.9389648,153.6430664 C153.5813751,153.1839142 153.0534668,152.9543457 152.3552246,152.9543457 C151.6654358,152.9543457 151.1449432,153.1807404 150.7937012,153.6335449 C150.4424591,154.0863495 150.2668457,154.7613068 150.2668457,155.6584473 Z M162.322998,159.1433105 L162.322998,154.6428223 C162.322998,154.0757599 162.193924,153.6525879 161.935791,153.373291 C161.6776581,153.0939941 161.2735291,152.9543457 160.7233887,152.9543457 C159.9955139,152.9543457 159.462326,153.151123 159.1237793,153.5446777 C158.7852325,153.9382324 158.6159668,154.5877991 158.6159668,155.4934082 L158.6159668,159.1433105 L157.5622559,159.1433105 L157.5622559,152.1862793 L158.4191895,152.1862793 L158.5905762,153.1384277 L158.6413574,153.1384277 C158.8571777,152.7956543 159.1597443,152.5301208 159.5490723,152.3417969 C159.9384003,152.1534729 160.3721466,152.0593262 160.8503418,152.0593262 C161.6882324,152.0593262 162.3187714,152.2613831 162.7419434,152.6655273 C163.1651154,153.0696716 163.376709,153.7160645 163.376709,154.6047363 L163.376709,159.1433105 Z M167.8093262,158.4006348 C167.9955292,158.4006348 168.1753693,158.3868713 168.348877,158.359375 C168.5223846,158.3318787 168.6599121,158.3033142 168.7614746,158.2736816 L168.7614746,159.079834 C168.6472168,159.1348572 168.4790039,159.1803284 168.2568359,159.2163086 C168.034668,159.2522888 167.8347168,159.2702637 167.6569824,159.2702637 C166.3112793,159.2702637 165.6384277,158.5614471 165.6384277,157.1437988 L165.6384277,153.005127 L164.6418457,153.005127 L164.6418457,152.4973145 L165.6384277,152.0593262 L166.0827637,150.5739746 L166.6921387,150.5739746 L166.6921387,152.1862793 L168.7106934,152.1862793 L168.7106934,153.005127 L166.6921387,153.005127 L166.6921387,157.0993652 C166.6921387,157.5183105 166.7915802,157.83992 166.9904785,158.064209 C167.1893768,158.2884827 167.462326,158.4006348 167.8093262,158.4006348 Z M173.736084,152.0593262 C174.0449982,152.0593262 174.3221893,152.0847168 174.567627,152.135498 L174.4216309,153.1130371 C174.1338654,153.0495605 173.8799591,153.0178223 173.6599121,153.0178223 C173.0970764,153.0178223 172.6157227,153.2463379 172.2158203,153.7033691 C171.815918,154.1604004 171.6159668,154.7295685 171.6159668,155.4108887 L171.6159668,159.1433105 L170.5622559,159.1433105 L170.5622559,152.1862793 L171.4318848,152.1862793 L171.5524902,153.4748535 L171.6032715,153.4748535 C171.8614044,153.022049 172.1724396,152.6729431 172.536377,152.4274902 C172.9003143,152.1820374 173.3002167,152.0593262 173.736084,152.0593262 Z M179.8405762,159.1433105 L179.6311035,158.1530762 L179.5803223,158.1530762 C179.2333221,158.5889587 178.8873749,158.8841248 178.5424805,159.0385742 C178.1975861,159.1930237 177.7670135,159.2702637 177.2507324,159.2702637 C176.5609436,159.2702637 176.02034,159.0925293 175.6289063,158.7370605 C175.2374725,158.3815918 175.041748,157.8759003 175.041748,157.2199707 C175.041748,155.8150177 176.1652679,155.0786896 178.4123535,155.0109863 L179.5930176,154.9729004 L179.5930176,154.5412598 C179.5930176,153.9953613 179.4755859,153.5922852 179.2407227,153.3320313 C179.0058594,153.0717773 178.6302948,152.9416504 178.1140137,152.9416504 C177.534256,152.9416504 176.8783417,153.1193848 176.1462402,153.4748535 L175.8225098,152.6687012 C176.1652832,152.4824982 176.5408478,152.3365021 176.9492188,152.2307129 C177.3575897,152.1249237 177.7670135,152.0720215 178.1774902,152.0720215 C179.0069275,152.0720215 179.621582,152.2561035 180.0214844,152.6242676 C180.4213867,152.9924316 180.6213379,153.5827637 180.6213379,154.3952637 L180.6213379,159.1433105 Z M177.4602051,158.4006348 C178.1161346,158.4006348 178.6313477,158.2207947 179.0058594,157.861084 C179.3803711,157.5013733 179.567627,156.9978027 179.567627,156.3503418 L179.567627,155.7219238 L178.513916,155.7663574 C177.6760254,155.7959747 177.0719452,155.9261017 176.7016602,156.1567383 C176.3313751,156.3873749 176.1462402,156.7460022 176.1462402,157.232666 C176.1462402,157.6135254 176.2615509,157.9033966 176.4921875,158.1022949 C176.7228241,158.301178 177.0454865,158.4006348 177.4602051,158.4006348 Z M185.3425293,159.2702637 C184.3353577,159.2702637 183.5556641,158.9602966 183.003418,158.340332 C182.4511719,157.7203674 182.1750488,156.8433533 182.1750488,155.7092285 C182.1750488,154.5454865 182.4553986,153.6462402 183.0161133,153.0114746 C183.576828,152.376709 184.3755646,152.0593262 185.4123535,152.0593262 C185.7466736,152.0593262 186.0809631,152.0952911 186.4152832,152.1672363 C186.7496033,152.2391815 187.0119629,152.3238068 187.2023926,152.4211426 L186.8786621,153.3161621 C186.6459045,153.2230682 186.3920135,153.1458282 186.1169434,153.0844727 C185.8418732,153.0231171 185.5985413,152.9924316 185.3869629,152.9924316 C183.9735413,152.9924316 183.2668457,153.8937988 183.2668457,155.6965332 C183.2668457,156.5513611 183.4392853,157.2072754 183.7841797,157.6643066 C184.1290741,158.1213379 184.6400452,158.3498535 185.3171387,158.3498535 C185.8968964,158.3498535 186.4914551,158.2250061 187.1008301,157.9753418 L187.1008301,158.9084473 C186.6353302,159.1496582 186.0492401,159.2702637 185.3425293,159.2702637 Z M190.8093262,158.4006348 C190.9955139,158.4006348 191.1753845,158.3868713 191.348877,158.359375 C191.5223694,158.3318787 191.6599121,158.3033142 191.7614746,158.2736816 L191.7614746,159.079834 C191.6472168,159.1348572 191.4790039,159.1803284 191.2568359,159.2163086 C191.034668,159.2522888 190.8347168,159.2702637 190.6569824,159.2702637 C189.3112793,159.2702637 188.6384277,158.5614471 188.6384277,157.1437988 L188.6384277,153.005127 L187.6418457,153.005127 L187.6418457,152.4973145 L188.6384277,152.0593262 L189.0827637,150.5739746 L189.6921387,150.5739746 L189.6921387,152.1862793 L191.7106934,152.1862793 L191.7106934,153.005127 L189.6921387,153.005127 L189.6921387,157.0993652 C189.6921387,157.5183105 189.7915955,157.83992 189.9904785,158.064209 C190.1893616,158.2884827 190.4623108,158.4006348 190.8093262,158.4006348 Z M192.0344238,159.1433105" style="fill:rgb(23,55,94);stroke:none" clip-path="url(#clip16)" />
<clipPath id="clip17"><path d="M38,14 L210,14 L210,55 L38,55 L38,14 Z" /></clipPath>
<path d="M45,16 C42.2385864,16 40,18.2385712 40,21 L40,47 C40,49.761425 42.2385864,52 45,52 L202,52 C204.7614288,52 207,49.761425 207,47 L207,21 C207,18.2385712 204.7614288,16 202,16 Z M45,16" style="fill:rgb(220,230,242);stroke:none" clip-path="url(#clip17)" />
<clipPath id="clip18"><path d="M38,14 L210,14 L210,55 L38,55 L38,14 Z" /></clipPath>
<path d="M45,16 C42.2385864,16 40,18.2385712 40,21 L40,47 C40,49.761425 42.2385864,52 45,52 L202,52 C204.7614288,52 207,49.761425 207,47 L207,21 C207,18.2385712 204.7614288,16 202,16 Z M45,16" style="fill:none;stroke:rgb(85,142,213);stroke-width:2" clip-path="url(#clip18)" />
<clipPath id="clip19"><path d="M52,23 L196,23 L196,46 L52,46 L52,23 Z" /></clipPath>
<path d="M61.7038574,37.8769531 L60.548584,34.925293 L56.8288574,34.925293 L55.6862793,37.8769531 L54.5944824,37.8769531 L58.2634277,28.5585938 L59.1711426,28.5585938 L62.8210449,37.8769531 Z M60.2121582,33.9541016 L59.1330566,31.0786133 C58.9934082,30.7146797 58.8495331,30.2682304 58.701416,29.7392578 C58.6083221,30.1455116 58.4750214,30.5919571 58.3015137,31.0786133 L57.2097168,33.9541016 Z M68.4470215,36.9438477 L68.3898926,36.9438477 C67.903244,37.6505585 67.1753845,38.0039063 66.2062988,38.0039063 C65.296463,38.0039063 64.5886993,37.6928749 64.0830078,37.0708008 C63.5773163,36.4487267 63.3244629,35.5642967 63.3244629,34.4174805 C63.3244629,33.2706642 63.5783691,32.3798866 64.0861816,31.7451172 C64.5939941,31.1103477 65.3006897,30.7929688 66.2062988,30.7929688 C67.1499939,30.7929688 67.8736115,31.1357384 68.3771973,31.8212891 L68.4597168,31.8212891 L68.4152832,31.3198242 L68.3898926,30.8310547 L68.3898926,28 L69.4436035,28 L69.4436035,37.8769531 L68.5866699,37.8769531 Z M66.3395996,37.121582 C67.0590057,37.121582 67.5805664,36.9258652 67.9042969,36.5344238 C68.2280273,36.1429825 68.3898926,35.5113983 68.3898926,34.6396484 L68.3898926,34.4174805 C68.3898926,33.4314728 68.2259064,32.7279472 67.8979492,32.3068848 C67.5699921,31.8858223 67.0463104,31.675293 66.3269043,31.675293 C65.7090607,31.675293 65.2361603,31.9154434 64.9082031,32.395752 C64.580246,32.8760605 64.4162598,33.5541954 64.4162598,34.4301758 C64.4162598,35.3188515 64.5791779,35.9895821 64.9050293,36.4423828 C65.2308807,36.8951836 65.7090607,37.121582 66.3395996,37.121582 Z M75.9899902,37.8769531 L75.7805176,36.8867188 L75.7297363,36.8867188 C75.3827362,37.3225937 75.0367889,37.6177559 74.6918945,37.7722168 C74.3470001,37.9266777 73.9164276,38.0039063 73.4001465,38.0039063 C72.7103577,38.0039063 72.169754,37.8261719 71.7783203,37.4707031 C71.3868866,37.1152344 71.1911621,36.6095428 71.1911621,35.9536133 C71.1911621,34.5486565 72.314682,33.812336 74.5617676,33.7446289 L75.7424316,33.706543 L75.7424316,33.2749023 C75.7424316,32.7290001 75.625,32.3259277 75.3901367,32.0656738 C75.1552734,31.8054199 74.7797089,31.675293 74.2634277,31.675293 C73.68367,31.675293 73.0277557,31.8530273 72.2956543,32.2084961 L71.9719238,31.4023438 C72.3146973,31.2161446 72.6902618,31.0701485 73.0986328,30.9643555 C73.5070038,30.8585625 73.9164276,30.8056641 74.3269043,30.8056641 C75.1563416,30.8056641 75.7709961,30.9897461 76.1708984,31.3579102 C76.5708008,31.7260742 76.770752,32.3164024 76.770752,33.1289063 L76.770752,37.8769531 Z M73.6096191,37.1342773 C74.2655487,37.1342773 74.7807617,36.9544296 75.1552734,36.5947266 C75.5297852,36.2350235 75.717041,35.7314491 75.717041,35.0839844 L75.717041,34.4555664 L74.6633301,34.5 C73.8254395,34.5296211 73.2213593,34.6597481 72.8510742,34.8903809 C72.4807892,35.1210136 72.2956543,35.4796524 72.2956543,35.9663086 C72.2956543,36.347168 72.410965,36.637043 72.6416016,36.8359375 C72.8722382,37.034832 73.1949005,37.1342773 73.6096191,37.1342773 Z M81.9489746,38.0039063 C81.49617,38.0039063 81.0825195,37.92033 80.7080078,37.7531738 C80.3334961,37.5860176 80.0192871,37.3289413 79.7653809,36.9819336 L79.689209,36.9819336 C79.7399902,37.3881874 79.7653809,37.7732735 79.7653809,38.137207 L79.7653809,41 L78.7116699,41 L78.7116699,30.9199219 L79.5686035,30.9199219 L79.7145996,31.8720703 L79.7653809,31.8720703 C80.0362091,31.4912109 80.3514862,31.2161484 80.7111816,31.046875 C81.0708771,30.8776016 81.4834747,30.7929688 81.9489746,30.7929688 C82.8715057,30.7929688 83.5834961,31.1082344 84.0849609,31.7387695 C84.5864258,32.3693047 84.8371582,33.2537384 84.8371582,34.3920898 C84.8371582,35.5346718 84.5821991,36.4222794 84.0722656,37.0549316 C83.5623322,37.6875839 82.8545837,38.0039063 81.9489746,38.0039063 Z M81.7966309,31.6879883 C81.0856934,31.6879883 80.5715332,31.8847618 80.2541504,32.2783203 C79.9367676,32.6718788 79.7738495,33.298172 79.7653809,34.1572266 L79.7653809,34.3920898 C79.7653809,35.3696327 79.928299,36.0689278 80.2541504,36.4899902 C80.5800018,36.9110527 81.1026154,37.121582 81.8220215,37.121582 C82.4229431,37.121582 82.8937225,36.8782578 83.234375,36.3916016 C83.5750275,35.9049454 83.7453613,35.2342148 83.7453613,34.3793945 C83.7453613,33.511879 83.5750275,32.8464394 83.234375,32.3830566 C82.8937225,31.9196739 82.4144745,31.6879883 81.7966309,31.6879883 Z M88.9587402,37.1342773 C89.1449432,37.1342773 89.3247833,37.1205254 89.498291,37.0930176 C89.6717987,37.0655098 89.8093262,37.0369453 89.9108887,37.0073242 L89.9108887,37.8134766 C89.7966309,37.8684883 89.628418,37.9139824 89.40625,37.9499512 C89.184082,37.98592 88.9841309,38.0039063 88.8063965,38.0039063 C87.4606934,38.0039063 86.7878418,37.2950935 86.7878418,35.8774414 L86.7878418,31.7387695 L85.7912598,31.7387695 L85.7912598,31.230957 L86.7878418,30.7929688 L87.2321777,29.3076172 L87.8415527,29.3076172 L87.8415527,30.9199219 L89.8601074,30.9199219 L89.8601074,31.7387695 L87.8415527,31.7387695 L87.8415527,35.8330078 C87.8415527,36.2519569 87.9409943,36.5735664 88.1398926,36.7978516 C88.3387909,37.0221367 88.6117401,37.1342773 88.9587402,37.1342773 Z M92.7653809,37.8769531 L91.7116699,37.8769531 L91.7116699,30.9199219 L92.7653809,30.9199219 Z M91.6228027,29.034668 C91.6228027,28.793457 91.6820526,28.6167831 91.8005371,28.5046387 C91.9190216,28.3924942 92.0671387,28.3364258 92.244873,28.3364258 C92.4141388,28.3364258 92.5601349,28.3935547 92.6828613,28.5078125 C92.8055878,28.6220703 92.8669434,28.7976913 92.8669434,29.034668 C92.8669434,29.2716446 92.8055878,29.4483261 92.6828613,29.5646973 C92.5601349,29.6810684 92.4141388,29.7392578 92.244873,29.7392578 C92.0671387,29.7392578 91.9190216,29.6810684 91.8005371,29.5646973 C91.6820526,29.4483261 91.6228027,29.2716446 91.6228027,29.034668 Z M96.2351074,37.8769531 L93.5944824,30.9199219 L94.7243652,30.9199219 L96.2224121,35.0458984 C96.5609589,36.010746 96.7598419,36.637043 96.8190918,36.9248047 L96.869873,36.9248047 C96.9164276,36.7005196 97.0634766,36.2360878 97.3110352,35.5314941 C97.5585938,34.8269005 98.1140137,33.2897263 98.9772949,30.9199219 L100.1071777,30.9199219 L97.4665527,37.8769531 Z M104.6506348,38.0039063 C103.6223145,38.0039063 102.8108826,37.6907578 102.2163086,37.0644531 C101.6217346,36.4381485 101.3244629,35.5685272 101.3244629,34.4555664 C101.3244629,33.3341408 101.6005859,32.4433632 102.152832,31.7832031 C102.7050781,31.1230431 103.4466858,30.7929688 104.3776855,30.7929688 C105.2494354,30.7929688 105.939209,31.07967 106.4470215,31.6530762 C106.954834,32.2264824 107.2087402,32.9829063 107.2087402,33.9223633 L107.2087402,34.5888672 L102.4162598,34.5888672 C102.4374237,35.4056015 102.6437225,36.0255508 103.0351563,36.4487305 C103.42659,36.8719101 103.9777832,37.0834961 104.6887207,37.0834961 C105.4377441,37.0834961 106.178299,36.9269218 106.9104004,36.6137695 L106.9104004,37.5532227 C106.5380096,37.7140312 106.1857147,37.8293457 105.8535156,37.8991699 C105.5213165,37.9689941 105.1203613,38.0039063 104.6506348,38.0039063 Z M104.3649902,31.675293 C103.8063965,31.675293 103.3610077,31.8572578 103.0288086,32.2211914 C102.6966095,32.585125 102.5009003,33.0886993 102.4416504,33.7319336 L106.0788574,33.7319336 C106.0788574,33.067543 105.9307404,32.5586777 105.6345215,32.2053223 C105.3383026,31.8519669 104.9151306,31.675293 104.3649902,31.675293 Z M117.7165527,34.3920898 C117.7165527,35.5262108 117.4309082,36.4116974 116.8596191,37.048584 C116.2883301,37.6854706 115.499115,38.0039063 114.4919434,38.0039063 C113.869873,38.0039063 113.317627,37.8579102 112.8352051,37.565918 C112.3527832,37.2739258 111.9803925,36.8549843 111.7180176,36.309082 C111.4556427,35.7631798 111.3244629,35.1241913 111.3244629,34.3920898 C111.3244629,33.2579689 111.6079865,32.3745956 112.1750488,31.7419434 C112.7421112,31.1092911 113.5292053,30.7929688 114.536377,30.7929688 C115.5096893,30.7929688 116.2830353,31.1166954 116.8564453,31.7641602 C117.4298553,32.4116249 117.7165527,33.2875938 117.7165527,34.3920898 Z M112.4162598,34.3920898 C112.4162598,35.2807655 112.5939941,35.9578438 112.9494629,36.4233398 C113.3049316,36.8888359 113.8275452,37.121582 114.517334,37.121582 C115.2071228,37.121582 115.7307892,36.8898964 116.0883789,36.4265137 C116.4459686,35.963131 116.6247559,35.2849998 116.6247559,34.3920898 C116.6247559,33.5076447 116.4459686,32.8358574 116.0883789,32.376709 C115.7307892,31.9175606 115.2028809,31.6879883 114.5046387,31.6879883 C113.8148499,31.6879883 113.2943573,31.9143867 112.9431152,32.3671875 C112.5918732,32.8199883 112.4162598,33.4949493 112.4162598,34.3920898 Z M121.2351074,37.8769531 L118.5944824,30.9199219 L119.7243652,30.9199219 L121.2224121,35.0458984 C121.5609589,36.010746 121.7598419,36.637043 121.8190918,36.9248047 L121.869873,36.9248047 C121.9164276,36.7005196 122.0634766,36.2360878 122.3110352,35.5314941 C122.5585938,34.8269005 123.1140137,33.2897263 123.9772949,30.9199219 L125.1071777,30.9199219 L122.4665527,37.8769531 Z M129.6506348,38.0039063 C128.6223145,38.0039063 127.8108826,37.6907578 127.2163086,37.0644531 C126.6217346,36.4381485 126.3244629,35.5685272 126.3244629,34.4555664 C126.3244629,33.3341408 126.6005859,32.4433632 127.152832,31.7832031 C127.7050781,31.1230431 128.4466858,30.7929688 129.3776855,30.7929688 C130.2494354,30.7929688 130.939209,31.07967 131.4470215,31.6530762 C131.954834,32.2264824 132.2087402,32.9829063 132.2087402,33.9223633 L132.2087402,34.5888672 L127.4162598,34.5888672 C127.4374237,35.4056015 127.6437225,36.0255508 128.0351563,36.4487305 C128.42659,36.8719101 128.9777832,37.0834961 129.6887207,37.0834961 C130.4377441,37.0834961 131.178299,36.9269218 131.9104004,36.6137695 L131.9104004,37.5532227 C131.5380096,37.7140312 131.1857147,37.8293457 130.8535156,37.8991699 C130.5213165,37.9689941 130.1203613,38.0039063 129.6506348,38.0039063 Z M129.3649902,31.675293 C128.8063965,31.675293 128.3610077,31.8572578 128.0288086,32.2211914 C127.6966095,32.585125 127.5009003,33.0886993 127.4416504,33.7319336 L131.0788574,33.7319336 C131.0788574,33.067543 130.9307404,32.5586777 130.6345215,32.2053223 C130.3383026,31.8519669 129.9151306,31.675293 129.3649902,31.675293 Z M136.885498,30.7929688 C137.1944122,30.7929688 137.4716034,30.8183594 137.717041,30.8691406 L137.5710449,31.8466797 C137.2832794,31.7832031 137.0293732,31.7514648 136.8093262,31.7514648 C136.2464905,31.7514648 135.7651367,31.9799767 135.3652344,32.4370117 C134.965332,32.8940468 134.7653809,33.4632111 134.7653809,34.1445313 L134.7653809,37.8769531 L133.7116699,37.8769531 L133.7116699,30.9199219 L134.5812988,30.9199219 L134.7019043,32.2084961 L134.7526855,32.2084961 C135.0108185,31.7556953 135.3218536,31.4065781 135.685791,31.1611328 C136.0497284,30.9156876 136.4496307,30.7929688 136.885498,30.7929688 Z M147.7546387,31.3007813 C147.7546387,32.2402382 147.434082,32.9628067 146.7929688,33.4685059 C146.1518555,33.974205 145.2346191,34.2270508 144.0412598,34.2270508 L142.9494629,34.2270508 L142.9494629,37.8769531 L141.8703613,37.8769531 L141.8703613,28.5966797 L144.276123,28.5966797 C146.5951385,28.5966797 147.7546387,29.4980392 147.7546387,31.3007813 Z M142.9494629,33.300293 L143.9206543,33.300293 C144.8770447,33.300293 145.568924,33.1458359 145.9963379,32.8369141 C146.4237518,32.5279922 146.6374512,32.0328827 146.6374512,31.3515625 C146.6374512,30.7379532 146.4364471,30.2809258 146.0344238,29.9804688 C145.6324005,29.6800079 145.0061035,29.5297852 144.1555176,29.5297852 L142.9494629,29.5297852 Z M150.7653809,37.8769531 L149.7116699,37.8769531 L149.7116699,28 L150.7653809,28 Z M156.9899902,37.8769531 L156.7805176,36.8867188 L156.7297363,36.8867188 C156.3827362,37.3225937 156.0367889,37.6177559 155.6918945,37.7722168 C155.3470001,37.9266777 154.9164276,38.0039063 154.4001465,38.0039063 C153.7103577,38.0039063 153.169754,37.8261719 152.7783203,37.4707031 C152.3868866,37.1152344 152.1911621,36.6095428 152.1911621,35.9536133 C152.1911621,34.5486565 153.314682,33.812336 155.5617676,33.7446289 L156.7424316,33.706543 L156.7424316,33.2749023 C156.7424316,32.7290001 156.625,32.3259277 156.3901367,32.0656738 C156.1552734,31.8054199 155.7797089,31.675293 155.2634277,31.675293 C154.68367,31.675293 154.0277557,31.8530273 153.2956543,32.2084961 L152.9719238,31.4023438 C153.3146973,31.2161446 153.6902618,31.0701485 154.0986328,30.9643555 C154.5070038,30.8585625 154.9164276,30.8056641 155.3269043,30.8056641 C156.1563416,30.8056641 156.7709961,30.9897461 157.1708984,31.3579102 C157.5708008,31.7260742 157.770752,32.3164024 157.770752,33.1289063 L157.770752,37.8769531 Z M154.6096191,37.1342773 C155.2655487,37.1342773 155.7807617,36.9544296 156.1552734,36.5947266 C156.5297852,36.2350235 156.717041,35.7314491 156.717041,35.0839844 L156.717041,34.4555664 L155.6633301,34.5 C154.8254395,34.5296211 154.2213593,34.6597481 153.8510742,34.8903809 C153.4807892,35.1210136 153.2956543,35.4796524 153.2956543,35.9663086 C153.2956543,36.347168 153.410965,36.637043 153.6416016,36.8359375 C153.8722382,37.034832 154.1949005,37.1342773 154.6096191,37.1342773 Z M164.4724121,37.8769531 L164.4724121,33.3764648 C164.4724121,32.8094063 164.343338,32.3862305 164.0852051,32.1069336 C163.8270721,31.8276367 163.4229431,31.6879883 162.8728027,31.6879883 C162.144928,31.6879883 161.6117401,31.8847618 161.2731934,32.2783203 C160.9346466,32.6718788 160.7653809,33.3214455 160.7653809,34.2270508 L160.7653809,37.8769531 L159.7116699,37.8769531 L159.7116699,30.9199219 L160.5686035,30.9199219 L160.7399902,31.8720703 L160.7907715,31.8720703 C161.0065918,31.5292969 161.3091583,31.2637558 161.6984863,31.0754395 C162.0878143,30.8871231 162.5215607,30.7929688 162.9997559,30.7929688 C163.8376465,30.7929688 164.4681854,30.9950333 164.8913574,31.3991699 C165.3145294,31.8033066 165.526123,32.4497032 165.526123,33.3383789 L165.526123,37.8769531 Z M172.4724121,37.8769531 L172.4724121,33.3764648 C172.4724121,32.8094063 172.343338,32.3862305 172.0852051,32.1069336 C171.8270721,31.8276367 171.4229431,31.6879883 170.8728027,31.6879883 C170.144928,31.6879883 169.6117401,31.8847618 169.2731934,32.2783203 C168.9346466,32.6718788 168.7653809,33.3214455 168.7653809,34.2270508 L168.7653809,37.8769531 L167.7116699,37.8769531 L167.7116699,30.9199219 L168.5686035,30.9199219 L168.7399902,31.8720703 L168.7907715,31.8720703 C169.0065918,31.5292969 169.3091583,31.2637558 169.6984863,31.0754395 C170.0878143,30.8871231 170.5215607,30.7929688 170.9997559,30.7929688 C171.8376465,30.7929688 172.4681854,30.9950333 172.8913574,31.3991699 C173.3145294,31.8033066 173.526123,32.4497032 173.526123,33.3383789 L173.526123,37.8769531 Z M176.7653809,37.8769531 L175.7116699,37.8769531 L175.7116699,30.9199219 L176.7653809,30.9199219 Z M175.6228027,29.034668 C175.6228027,28.793457 175.6820526,28.6167831 175.8005371,28.5046387 C175.9190216,28.3924942 176.0671387,28.3364258 176.244873,28.3364258 C176.4141388,28.3364258 176.5601349,28.3935547 176.6828613,28.5078125 C176.8055878,28.6220703 176.8669434,28.7976913 176.8669434,29.034668 C176.8669434,29.2716446 176.8055878,29.4483261 176.6828613,29.5646973 C176.5601349,29.6810684 176.4141388,29.7392578 176.244873,29.7392578 C176.0671387,29.7392578 175.9190216,29.6810684 175.8005371,29.5646973 C175.6820526,29.4483261 175.6228027,29.2716446 175.6228027,29.034668 Z M183.4724121,37.8769531 L183.4724121,33.3764648 C183.4724121,32.8094063 183.3433533,32.3862305 183.0852051,32.1069336 C182.8270569,31.8276367 182.4229431,31.6879883 181.8728027,31.6879883 C181.144928,31.6879883 180.6117401,31.8847618 180.2731934,32.2783203 C179.9346466,32.6718788 179.7653809,33.3214455 179.7653809,34.2270508 L179.7653809,37.8769531 L178.7116699,37.8769531 L178.7116699,30.9199219 L179.5686035,30.9199219 L179.7399902,31.8720703 L179.7907715,31.8720703 C180.0065918,31.5292969 180.3091583,31.2637558 180.6984863,31.0754395 C181.0878143,30.8871231 181.5215607,30.7929688 181.9997559,30.7929688 C182.8376465,30.7929688 183.4681702,30.9950333 183.8913574,31.3991699 C184.3145447,31.8033066 184.526123,32.4497032 184.526123,33.3383789 L184.526123,37.8769531 Z M192.4055176,30.9199219 L192.4055176,31.5864258 L191.1169434,31.7387695 C191.2354431,31.8868828 191.341217,32.0804825 191.4343262,32.3195801 C191.5274353,32.5586777 191.5739746,32.8284492 191.5739746,33.1289063 C191.5739746,33.8102264 191.3412323,34.3540001 190.8757324,34.7602539 C190.4102325,35.1665077 189.7712402,35.3696289 188.9587402,35.3696289 C188.7513733,35.3696289 188.5567322,35.3527031 188.3747559,35.3188477 C187.926178,35.5558281 187.7019043,35.8541641 187.7019043,36.2138672 C187.7019043,36.4042969 187.7801819,36.545002 187.9367676,36.6359863 C188.0933533,36.7269707 188.3620605,36.7724609 188.7429199,36.7724609 L189.9743652,36.7724609 C190.7276306,36.7724609 191.3063049,36.9311523 191.7104492,37.2485352 C192.1145935,37.565918 192.3166504,38.0271797 192.3166504,38.6323242 C192.3166504,39.4025116 192.0077362,39.9896622 191.3898926,40.3937988 C190.772049,40.7979355 189.870697,41 188.685791,41 C187.7759552,41 187.0745544,40.8307304 186.581543,40.4921875 C186.0885315,40.1536446 185.842041,39.675457 185.842041,39.0576172 C185.842041,38.6344376 185.9774475,38.2683945 186.248291,37.9594727 C186.5191345,37.6505508 186.8999786,37.441082 187.3908691,37.3310547 C187.2131348,37.2506523 187.0639648,37.1258163 186.9433594,36.956543 C186.8227539,36.7872696 186.7624512,36.5904961 186.7624512,36.3662109 C186.7624512,36.1123047 186.8301697,35.8901367 186.9655762,35.699707 C187.1009827,35.5092773 187.3146973,35.3251953 187.6066895,35.1474609 C187.2469788,34.9993477 186.953949,34.7475586 186.7275391,34.3920898 C186.5011292,34.0366211 186.3879395,33.6303749 186.3879395,33.1733398 C186.3879395,32.4116173 186.6164551,31.8244667 187.0734863,31.4118652 C187.5305176,30.9992638 188.1779785,30.7929688 189.0158691,30.7929688 C189.3798065,30.7929688 189.7077637,30.8352852 189.9997559,30.9199219 Z M186.857666,39.0449219 C186.857666,39.4215508 187.0163574,39.7071915 187.3337402,39.9018555 C187.651123,40.0965195 188.1060333,40.1938477 188.6984863,40.1938477 C189.5829315,40.1938477 190.237793,40.0616074 190.6630859,39.7971191 C191.0883789,39.5326309 191.3010254,39.1739922 191.3010254,38.7211914 C191.3010254,38.3445625 191.1846619,38.083252 190.9519043,37.9372559 C190.7191467,37.7912598 190.2811737,37.7182617 189.6379395,37.7182617 L188.3747559,37.7182617 C187.8965607,37.7182617 187.5241699,37.8325195 187.2575684,38.0610352 C186.9909668,38.2895508 186.857666,38.6175117 186.857666,39.0449219 Z M187.4289551,33.1479492 C187.4289551,33.6346054 187.5664825,34.0027657 187.8415527,34.2524414 C188.1166229,34.5021172 188.499588,34.6269531 188.9904785,34.6269531 C190.0187988,34.6269531 190.532959,34.1276093 190.532959,33.1289063 C190.532959,32.0836525 190.0124512,31.5610352 188.9714355,31.5610352 C188.4763184,31.5610352 188.095459,31.6943359 187.8288574,31.9609375 C187.5622559,32.2275391 187.4289551,32.6232071 187.4289551,33.1479492 Z M192.7165527,37.8769531" style="fill:rgb(23,55,94);stroke:none" clip-path="url(#clip19)" />
</svg>
