<?xml version="1.0" encoding="UTF-8"?>
<!DOCTYPE svg PUBLIC "-//W3C//DTD SVG 1.1//EN" "http://www.w3.org/Graphics/SVG/1.1/DTD/svg11.dtd">
<svg version="1.2" xmlns="http://www.w3.org/2000/svg" xmlns:xlink="http://www.w3.org/1999/xlink" x="0" y="0" width="498" height="233" viewBox="0 0 498 233">
<style type="text/css"><![CDATA[
text { font:12px Dialog; }
]]></style>
<rect x="-1215" y="-1086" width="2936" height="2406" style="fill:rgb(255,255,255);stroke:none" />
<clipPath id="clip1"><path d="M15,15 L483,15 L483,218 L15,218 Z M190,86 C185.5817261,86 182,89.5817184 182,94 L182,138 C182,142.4182739 185.5817261,146 190,146 L300,146 C304.4182739,146 308,142.4182739 308,138 L308,94 C308,89.5817184 304.4182739,86 300,86 Z M190,86" /></clipPath>
<path d="M276.8292542,86 C289.0894165,51.3333359 307.4796753,34 332,34" style="fill:none;stroke:rgb(85,142,213)" clip-path="url(#clip1)" />
<clipPath id="clip2"><path d="M15,15 L483,15 L483,218 L15,218 Z M190,86 C185.5817261,86 182,89.5817184 182,94 L182,138 C182,142.4182739 185.5817261,146 190,146 L300,146 C304.4182739,146 308,142.4182739 308,138 L308,94 C308,89.5817184 304.4182739,86 300,86 Z M190,86" /></clipPath>
<path d="M308,116 C322.222229,116 343.555542,116 372,116" style="fill:none;stroke:rgb(85,142,213)" clip-path="url(#clip2)" />
<clipPath id="clip3"><path d="M15,15 L483,15 L483,218 L15,218 Z M190,86 C185.5817261,86 182,89.5817184 182,94 L182,138 C182,142.4182739 185.5817261,146 190,146 L300,146 C304.4182739,146 308,142.4182739 308,138 L308,94 C308,89.5817184 304.4182739,86 300,86 Z M190,86" /></clipPath>
<path d="M276.8292542,146 C289.0894165,180.6666565 307.4796753,198 332,198" style="fill:none;stroke:rgb(85,142,213)" clip-path="url(#clip3)" />
<clipPath id="clip4"><path d="M15,15 L483,15 L483,218 L15,218 Z M190,86 C185.5817261,86 182,89.5817184 182,94 L182,138 C182,142.4182739 185.5817261,146 190,146 L300,146 C304.4182739,146 308,142.4182739 308,138 L308,94 C308,89.5817184 304.4182739,86 300,86 Z M190,86" /></clipPath>
<path d="M191,146 C179,166 161,176 137,176" style="fill:none;stroke:rgb(85,142,213)" clip-path="url(#clip4)" />
<clipPath id="clip5"><path d="M15,15 L483,15 L483,218 L15,218 Z M190,86 C185.5817261,86 182,89.5817184 182,94 L182,138 C182,142.4182739 185.5817261,146 190,146 L300,146 C304.4182739,146 308,142.4182739 308,138 L308,94 C308,89.5817184 304.4182739,86 300,86 Z M190,86" /></clipPath>
<path d="M191,86 C179,66 161,56 137,56" style="fill:none;stroke:rgb(85,142,213)" clip-path="url(#clip5)" />
<clipPath id="clip6"><path d="M178,82 L313,82 L313,151 L178,151 L178,82 Z" /></clipPath>
<path d="M190,86 C185.5817261,86 182,89.5817184 182,94 L182,138 C182,142.4182739 185.5817261,146 190,146 L300,146 C304.4182739,146 308,142.4182739 308,138 L308,94 C308,89.5817184 304.4182739,86 300,86 Z M190,86" style="fill:rgb(220,230,242);stroke:none" clip-path="url(#clip6)" />
<clipPath id="clip7"><path d="M178,82 L313,82 L313,151 L178,151 L178,82 Z" /></clipPath>
<path d="M190,86 C185.5817261,86 182,89.5817184 182,94 L182,138 C182,142.4182739 185.5817261,146 190,146 L300,146 C304.4182739,146 308,142.4182739 308,138 L308,94 C308,89.5817184 304.4182739,86 300,86 Z M190,86" style="fill:none;stroke:rgb(85,142,213);stroke-width:5" clip-path="url(#clip7)" />
<clipPath id="clip8"><path d="M214,102 L277,102 L277,131 L214,131 L214,102 Z" /></clipPath>
<path d="M221.0708008,116.0341797 L221.9672852,116.0341797 C222.8051758,116.0341797 223.4321289,115.8686523 223.8481445,115.5375977 C224.2641602,115.206543 224.472168,114.7246094 224.472168,114.0917969 C224.472168,113.453125 224.2978516,112.9814453 223.9492188,112.6767578 C223.6005859,112.3720703 223.0541992,112.2197266 222.3100586,112.2197266 L221.0708008,112.2197266 Z M227.2231445,113.9951172 C227.2231445,115.3779373 226.7910156,116.4355469 225.9267578,117.1679688 C225.0625,117.9003906 223.8334961,118.2666016 222.2397461,118.2666016 L221.0708008,118.2666016 L221.0708008,122.8369141 L218.3461914,122.8369141 L218.3461914,109.9873047 L222.4506836,109.9873047 C224.0092773,109.9873047 225.1943359,110.3227539 226.0058594,110.9936523 C226.8173828,111.6645508 227.2231445,112.6650314 227.2231445,113.9951172 Z M231.5737305,117.90625 C231.5737305,118.8789139 231.7333984,119.6142578 232.0527344,120.1123047 C232.3720703,120.6103516 232.8920898,120.859375 233.612793,120.859375 C234.3276367,120.859375 234.8417969,120.6118164 235.1552734,120.1166992 C235.46875,119.621582 235.6254883,118.8847733 235.6254883,117.90625 C235.6254883,116.9335861 235.4672852,116.2041016 235.1508789,115.7177734 C234.8344727,115.2314453 234.315918,114.9882813 233.5952148,114.9882813 C232.8803711,114.9882813 232.3647461,115.2299805 232.0483398,115.7133789 C231.7319336,116.1967773 231.5737305,116.9277267 231.5737305,117.90625 Z M238.3676758,117.90625 C238.3676758,119.505867 237.9458008,120.7568283 237.1020508,121.6591797 C236.2583008,122.5615311 235.0834961,123.0126953 233.5776367,123.0126953 C232.6342773,123.0126953 231.8022461,122.8061523 231.081543,122.3930664 C230.3608398,121.9799805 229.8071289,121.3867188 229.4204102,120.6132813 C229.0336914,119.8398438 228.840332,118.9375076 228.840332,117.90625 C228.840332,116.3007736 229.2592773,115.052742 230.097168,114.1621094 C230.9350586,113.2714767 232.112793,112.8261719 233.6303711,112.8261719 C234.5737305,112.8261719 235.4057617,113.03125 236.1264648,113.4414063 C236.847168,113.8515625 237.4008789,114.4404297 237.7875977,115.2080078 C238.1743164,115.9755936 238.3676758,116.8749924 238.3676758,117.90625 Z M248.2993164,122.8369141 L247.543457,119.4003906 L246.5239258,115.0585938 L246.4624023,115.0585938 L244.6694336,122.8369141 L241.7866211,122.8369141 L238.9916992,113.0107422 L241.6635742,113.0107422 L242.7973633,117.3613281 C242.9790039,118.140625 243.1635742,119.2158127 243.3510742,120.5869141 L243.4038086,120.5869141 C243.4272461,120.1416016 243.5297852,119.4355545 243.7114258,118.46875 L243.8520508,117.7216797 L245.0649414,113.0107422 L248.0180664,113.0107422 L249.1694336,117.7216797 C249.1928711,117.8505859 249.2294922,118.0410156 249.2792969,118.2929688 C249.3291016,118.5449219 249.3774414,118.8129883 249.4243164,119.097168 C249.4711914,119.3813477 249.5136719,119.659668 249.5517578,119.9321289 C249.5898438,120.2045898 249.6118164,120.4228516 249.6176758,120.5869141 L249.6704102,120.5869141 C249.7231445,120.1650391 249.8168945,119.5864258 249.9516602,118.8510742 C250.0864258,118.1157227 250.1831055,117.6191406 250.2416992,117.3613281 L251.4194336,113.0107422 L254.0473633,113.0107422 L251.2172852,122.8369141 Z M259.6987305,114.7333984 C259.1303711,114.7333984 258.6850586,114.9135742 258.362793,115.2739258 C258.0405273,115.6342773 257.855957,116.1455078 257.809082,116.8076172 L261.5708008,116.8076172 C261.559082,116.1455078 261.3862305,115.6342773 261.0522461,115.2739258 C260.7182617,114.9135742 260.2670898,114.7333984 259.6987305,114.7333984 Z M260.0766602,123.0126953 C258.4946289,123.0126953 257.2583008,122.5761795 256.3676758,121.703125 C255.4770508,120.8300705 255.0317383,119.5937576 255.0317383,117.9941406 C255.0317383,116.3476486 255.4433594,115.0747147 256.2666016,114.175293 C257.0898438,113.2758713 258.2280273,112.8261719 259.6811523,112.8261719 C261.0698242,112.8261719 262.1508789,113.2216721 262.9243164,114.0126953 C263.6977539,114.8037186 264.0844727,115.8964767 264.0844727,117.2910156 L264.0844727,118.5917969 L257.7475586,118.5917969 C257.7768555,119.3535156 258.0024414,119.9482422 258.4243164,120.3759766 C258.8461914,120.8037109 259.4379883,121.0175781 260.199707,121.0175781 C260.7915039,121.0175781 261.3510742,120.9560547 261.878418,120.8330078 C262.4057617,120.7099609 262.956543,120.5136719 263.5307617,120.2441406 L263.5307617,122.3183594 C263.0620117,122.5527344 262.5610352,122.7270508 262.027832,122.8413086 C261.4946289,122.9555664 260.8442383,123.0126953 260.0766602,123.0126953 Z M271.7485352,112.8261719 C272.1118164,112.8261719 272.4135742,112.8525391 272.6538086,112.9052734 L272.4516602,115.4189453 C272.2348633,115.3603516 271.9711914,115.3310547 271.6606445,115.3310547 C270.8051758,115.3310547 270.1386719,115.5507813 269.6611328,115.9902344 C269.1835938,116.4296875 268.9448242,117.0449142 268.9448242,117.8359375 L268.9448242,122.8369141 L266.2641602,122.8369141 L266.2641602,113.0107422 L268.2944336,113.0107422 L268.6899414,114.6630859 L268.8217773,114.6630859 C269.1264648,114.1123047 269.5380859,113.668457 270.0566406,113.331543 C270.5751953,112.9946289 271.1391602,112.8261719 271.7485352,112.8261719 Z M273.0317383,122.8369141" style="fill:rgb(55,96,146);stroke:none" clip-path="url(#clip8)" />
<clipPath id="clip9"><path d="M330,14 L456,14 L456,55 L330,55 L330,14 Z" /></clipPath>
<path d="M337,16 C334.2385864,16 332,18.2385712 332,21 L332,47 C332,49.7614288 334.2385864,52 337,52 L448,52 C450.7614136,52 453,49.7614288 453,47 L453,21 C453,18.2385712 450.7614136,16 448,16 Z M337,16" style="fill:rgb(220,230,242);stroke:none" clip-path="url(#clip9)" />
<clipPath id="clip10"><path d="M330,14 L456,14 L456,55 L330,55 L330,14 Z" /></clipPath>
<path d="M337,16 C334.2385864,16 332,18.2385712 332,21 L332,47 C332,49.7614288 334.2385864,52 337,52 L448,52 C450.7614136,52 453,49.7614288 453,47 L453,21 C453,18.2385712 450.7614136,16 448,16 Z M337,16" style="fill:none;stroke:rgb(85,142,213);stroke-width:2" clip-path="url(#clip10)" />
<clipPath id="clip11"><path d="M344,23 L442,23 L442,46 L344,46 L344,23 Z" /></clipPath>
<path d="M348.1557617,35.5505371 L348.1557617,39.4099121 L347.0766602,39.4099121 L347.0766602,30.1296387 L349.6220703,30.1296387 C350.760437,30.1296387 351.6014709,30.3475723 352.1452637,30.7834473 C352.6890564,31.2193222 352.9609375,31.8752365 352.9609375,32.7512207 C352.9609375,33.9784393 352.3388672,34.8078613 351.0947266,35.239502 L353.6147461,39.4099121 L352.3388672,39.4099121 L350.0917969,35.5505371 Z M348.1557617,34.6237793 L349.6347656,34.6237793 C350.3964844,34.6237793 350.9550781,34.472496 351.3105469,34.1699219 C351.6660156,33.8673477 351.84375,33.4134979 351.84375,32.8083496 C351.84375,32.1947403 351.6628418,31.7525253 351.3010254,31.4816895 C350.939209,31.2108536 350.3583984,31.0754395 349.5585938,31.0754395 L348.1557617,31.0754395 Z M357.8569336,39.5368652 C356.8286133,39.5368652 356.0171814,39.2237167 355.4226074,38.5974121 C354.8280334,37.9711075 354.5307617,37.1014862 354.5307617,35.9885254 C354.5307617,34.8671036 354.8068848,33.9763184 355.3591309,33.3161621 C355.911377,32.6560059 356.6529846,32.3259277 357.5839844,32.3259277 C358.4557495,32.3259277 359.1455078,32.6126251 359.6533203,33.1860352 C360.1611328,33.7594452 360.4150391,34.5158615 360.4150391,35.4553223 L360.4150391,36.1218262 L355.6225586,36.1218262 C355.6437073,36.9385605 355.8500061,37.5585098 356.2414551,37.9816895 C356.6329041,38.4048691 357.184082,38.6164551 357.8950195,38.6164551 C358.644043,38.6164551 359.3845825,38.4598846 360.1166992,38.1467285 L360.1166992,39.0861816 C359.7442932,39.2469864 359.3920288,39.3623047 359.0598145,39.4321289 C358.7276001,39.5019531 358.3266602,39.5368652 357.8569336,39.5368652 Z M357.5712891,33.208252 C357.0126953,33.208252 356.5673218,33.390213 356.2351074,33.7541504 C355.9028931,34.1180878 355.7071838,34.6216583 355.6479492,35.2648926 L359.2851563,35.2648926 C359.2851563,34.600502 359.1370544,34.0916367 358.8408203,33.7382813 C358.5445862,33.3849258 358.1214294,33.208252 357.5712891,33.208252 Z M365.0537109,33.2717285 L363.2827148,33.2717285 L363.2827148,39.4099121 L362.2290039,39.4099121 L362.2290039,33.2717285 L360.9848633,33.2717285 L360.9848633,32.7956543 L362.2290039,32.4147949 L362.2290039,32.0275879 C362.2290039,30.3179474 362.9758911,29.4631348 364.4697266,29.4631348 C364.8378906,29.4631348 365.2695313,29.5371933 365.7646484,29.6853027 L365.4916992,30.529541 C365.0854492,30.3983536 364.7384644,30.3327637 364.4506836,30.3327637 C364.052887,30.3327637 363.7587891,30.465004 363.5683594,30.7294922 C363.3779297,30.9939804 363.2827148,31.4182129 363.2827148,32.0021973 L363.2827148,32.4528809 L365.0537109,32.4528809 Z M368.8569336,39.5368652 C367.8286133,39.5368652 367.0171814,39.2237167 366.4226074,38.5974121 C365.8280334,37.9711075 365.5307617,37.1014862 365.5307617,35.9885254 C365.5307617,34.8671036 365.8068848,33.9763184 366.3591309,33.3161621 C366.911377,32.6560059 367.6529846,32.3259277 368.5839844,32.3259277 C369.4557495,32.3259277 370.1455078,32.6126251 370.6533203,33.1860352 C371.1611328,33.7594452 371.4150391,34.5158615 371.4150391,35.4553223 L371.4150391,36.1218262 L366.6225586,36.1218262 C366.6437073,36.9385605 366.8500061,37.5585098 367.2414551,37.9816895 C367.6329041,38.4048691 368.184082,38.6164551 368.8950195,38.6164551 C369.644043,38.6164551 370.3845825,38.4598846 371.1166992,38.1467285 L371.1166992,39.0861816 C370.7442932,39.2469864 370.3920288,39.3623047 370.0598145,39.4321289 C369.7276001,39.5019531 369.3266602,39.5368652 368.8569336,39.5368652 Z M368.5712891,33.208252 C368.0126953,33.208252 367.5673218,33.390213 367.2351074,33.7541504 C366.9028931,34.1180878 366.7071838,34.6216583 366.6479492,35.2648926 L370.2851563,35.2648926 C370.2851563,34.600502 370.1370544,34.0916367 369.8408203,33.7382813 C369.5445862,33.3849258 369.1214294,33.208252 368.5712891,33.208252 Z M376.0917969,32.3259277 C376.4006958,32.3259277 376.6779175,32.3513184 376.9233398,32.4020996 L376.7773438,33.3796387 C376.489563,33.3161621 376.2356567,33.2844238 376.015625,33.2844238 C375.4527893,33.2844238 374.9714355,33.5129395 374.5715332,33.9699707 C374.1716309,34.427002 373.9716797,34.99617 373.9716797,35.6774902 L373.9716797,39.4099121 L372.9179688,39.4099121 L372.9179688,32.4528809 L373.7875977,32.4528809 L373.9082031,33.7414551 L373.9589844,33.7414551 C374.2171021,33.2886505 374.5281372,32.939537 374.8920898,32.6940918 C375.2560425,32.4486465 375.6559448,32.3259277 376.0917969,32.3259277 Z M380.8569336,39.5368652 C379.8286133,39.5368652 379.0171814,39.2237167 378.4226074,38.5974121 C377.8280334,37.9711075 377.5307617,37.1014862 377.5307617,35.9885254 C377.5307617,34.8671036 377.8068848,33.9763184 378.3591309,33.3161621 C378.911377,32.6560059 379.6529846,32.3259277 380.5839844,32.3259277 C381.4557495,32.3259277 382.1455078,32.6126251 382.6533203,33.1860352 C383.1611328,33.7594452 383.4150391,34.5158615 383.4150391,35.4553223 L383.4150391,36.1218262 L378.6225586,36.1218262 C378.6437378,36.9385605 378.8500366,37.5585098 379.2414551,37.9816895 C379.6328735,38.4048691 380.184082,38.6164551 380.8950195,38.6164551 C381.644043,38.6164551 382.3845825,38.4598846 383.1166992,38.1467285 L383.1166992,39.0861816 C382.7443237,39.2469864 382.3920288,39.3623047 382.0598145,39.4321289 C381.7276001,39.5019531 381.3266602,39.5368652 380.8569336,39.5368652 Z M380.5712891,33.208252 C380.0126953,33.208252 379.5673218,33.390213 379.2351074,33.7541504 C378.9028931,34.1180878 378.7072144,34.6216583 378.6479492,35.2648926 L382.2851563,35.2648926 C382.2851563,34.600502 382.1370239,34.0916367 381.8408203,33.7382813 C381.5446167,33.3849258 381.1214294,33.208252 380.5712891,33.208252 Z M389.6787109,39.4099121 L389.6787109,34.9094238 C389.6787109,34.3423615 389.5496216,33.9191895 389.2915039,33.6398926 C389.0333862,33.3605957 388.6292419,33.2209473 388.0791016,33.2209473 C387.3512268,33.2209473 386.8180542,33.4177246 386.4794922,33.8112793 C386.1409302,34.204834 385.9716797,34.8544083 385.9716797,35.7600098 L385.9716797,39.4099121 L384.9179688,39.4099121 L384.9179688,32.4528809 L385.7749023,32.4528809 L385.9462891,33.4050293 L385.9970703,33.4050293 C386.2128906,33.0622559 386.5154419,32.7967148 386.9047852,32.6083984 C387.2941284,32.4200821 387.7278442,32.3259277 388.2060547,32.3259277 C389.0439453,32.3259277 389.6744995,32.5279922 390.0976563,32.9321289 C390.520813,33.3362656 390.7324219,33.9826584 390.7324219,34.8713379 L390.7324219,39.4099121 Z M395.1650391,38.6672363 C395.3512573,38.6672363 395.5310669,38.6534805 395.7045898,38.6259766 C395.8781128,38.5984726 396.015625,38.5699081 396.1171875,38.5402832 L396.1171875,39.3464355 C396.0029297,39.4014511 395.8347168,39.4469376 395.6125488,39.4829102 C395.3903809,39.5188828 395.1904297,39.5368652 395.0126953,39.5368652 C393.6669922,39.5368652 392.9941406,38.8280487 392.9941406,37.4104004 L392.9941406,33.2717285 L391.9975586,33.2717285 L391.9975586,32.763916 L392.9941406,32.3259277 L393.4384766,30.8405762 L394.0478516,30.8405762 L394.0478516,32.4528809 L396.0664063,32.4528809 L396.0664063,33.2717285 L394.0478516,33.2717285 L394.0478516,37.3659668 C394.0478516,37.7849121 394.1472778,38.1065292 394.3461914,38.3308105 C394.545105,38.5550919 394.8180542,38.6672363 395.1650391,38.6672363 Z M406.9609375,32.8337402 C406.9609375,33.773201 406.6403809,34.4957657 405.9992676,35.0014648 C405.3581543,35.507164 404.440918,35.7600098 403.2475586,35.7600098 L402.1557617,35.7600098 L402.1557617,39.4099121 L401.0766602,39.4099121 L401.0766602,30.1296387 L403.4824219,30.1296387 C405.8014526,30.1296387 406.9609375,31.0309982 406.9609375,32.8337402 Z M402.1557617,34.833252 L403.1269531,34.833252 C404.0833435,34.833252 404.7752075,34.6787949 405.2026367,34.369873 C405.6300659,34.0609512 405.84375,33.5658417 405.84375,32.8845215 C405.84375,32.2709122 405.6427612,31.8138885 405.2407227,31.5134277 C404.8386841,31.2129669 404.2124023,31.0627441 403.3618164,31.0627441 L402.1557617,31.0627441 Z M414.9228516,35.9250488 C414.9228516,37.059166 414.637207,37.9446564 414.065918,38.581543 C413.4946289,39.2184296 412.7054138,39.5368652 411.6982422,39.5368652 C411.0761719,39.5368652 410.5239258,39.3908691 410.0415039,39.098877 C409.559082,38.8068848 409.1867065,38.3879395 408.9243164,37.842041 C408.6619263,37.2961426 408.5307617,36.6571503 408.5307617,35.9250488 C408.5307617,34.7909317 408.81427,33.9075546 409.3813477,33.2749023 C409.9484253,32.6422501 410.7355042,32.3259277 411.7426758,32.3259277 C412.7160034,32.3259277 413.4893188,32.6496582 414.0627441,33.2971191 C414.6361694,33.9445801 414.9228516,34.820549 414.9228516,35.9250488 Z M409.6225586,35.9250488 C409.6225586,36.8137283 409.800293,37.490799 410.1557617,37.9562988 C410.5112305,38.4217987 411.033844,38.654541 411.7236328,38.654541 C412.4134216,38.654541 412.9370728,38.4228516 413.2946777,37.9594727 C413.6522827,37.4960938 413.8310547,36.817955 413.8310547,35.9250488 C413.8310547,35.0406036 413.6522827,34.3688202 413.2946777,33.909668 C412.9370728,33.4505157 412.4091797,33.2209473 411.7109375,33.2209473 C411.0211487,33.2209473 410.5006714,33.4473419 410.1494141,33.9001465 C409.7981567,34.352951 409.6225586,35.0279083 409.6225586,35.9250488 Z M422.5991211,39.4099121 L421.3232422,35.3283691 C421.2428589,35.0786972 421.0925903,34.5116425 420.8725586,33.6271973 L420.8217773,33.6271973 C420.6525269,34.3677597 420.5043945,34.9390411 420.3774414,35.3410645 L419.0634766,39.4099121 L417.8447266,39.4099121 L415.9467773,32.4528809 L417.0512695,32.4528809 C417.4998169,34.2006073 417.8415527,35.5314865 418.076416,36.4455566 C418.3112793,37.3596268 418.4456177,37.9753418 418.4794922,38.2927246 L418.5302734,38.2927246 C418.5768433,38.0515137 418.6519165,37.7394257 418.7556152,37.3564453 C418.859314,36.973465 418.9492188,36.669838 419.0253906,36.4455566 L420.3012695,32.4528809 L421.4438477,32.4528809 L422.6879883,36.4455566 C422.9249878,37.1734238 423.0857544,37.7849121 423.1704102,38.2800293 L423.2211914,38.2800293 C423.2380981,38.1276855 423.2836304,37.8928223 423.357666,37.5754395 C423.4317017,37.2580566 423.8728638,35.5505524 424.6811523,32.4528809 L425.7729492,32.4528809 L423.8496094,39.4099121 Z M429.8569336,39.5368652 C428.8286133,39.5368652 428.0171814,39.2237167 427.4226074,38.5974121 C426.8280334,37.9711075 426.5307617,37.1014862 426.5307617,35.9885254 C426.5307617,34.8671036 426.8068848,33.9763184 427.3591309,33.3161621 C427.911377,32.6560059 428.6529846,32.3259277 429.5839844,32.3259277 C430.4557495,32.3259277 431.1455078,32.6126251 431.6533203,33.1860352 C432.1611328,33.7594452 432.4150391,34.5158615 432.4150391,35.4553223 L432.4150391,36.1218262 L427.6225586,36.1218262 C427.6437378,36.9385605 427.8500366,37.5585098 428.2414551,37.9816895 C428.6328735,38.4048691 429.184082,38.6164551 429.8950195,38.6164551 C430.644043,38.6164551 431.3845825,38.4598846 432.1166992,38.1467285 L432.1166992,39.0861816 C431.7443237,39.2469864 431.3920288,39.3623047 431.0598145,39.4321289 C430.7276001,39.5019531 430.3266602,39.5368652 429.8569336,39.5368652 Z M429.5712891,33.208252 C429.0126953,33.208252 428.5673218,33.390213 428.2351074,33.7541504 C427.9028931,34.1180878 427.7072144,34.6216583 427.6479492,35.2648926 L431.2851563,35.2648926 C431.2851563,34.600502 431.1370239,34.0916367 430.8408203,33.7382813 C430.5446167,33.3849258 430.1214294,33.208252 429.5712891,33.208252 Z M437.0917969,32.3259277 C437.4006958,32.3259277 437.6779175,32.3513184 437.9233398,32.4020996 L437.7773438,33.3796387 C437.489563,33.3161621 437.2356567,33.2844238 437.015625,33.2844238 C436.4527893,33.2844238 435.9714355,33.5129395 435.5715332,33.9699707 C435.1716309,34.427002 434.9716797,34.99617 434.9716797,35.6774902 L434.9716797,39.4099121 L433.9179688,39.4099121 L433.9179688,32.4528809 L434.7875977,32.4528809 L434.9082031,33.7414551 L434.9589844,33.7414551 C435.2171021,33.2886505 435.5281372,32.939537 435.8920898,32.6940918 C436.2560425,32.4486465 436.6559448,32.3259277 437.0917969,32.3259277 Z M438.1074219,39.4099121" style="fill:rgb(23,55,94);stroke:none" clip-path="url(#clip11)" />
<clipPath id="clip12"><path d="M370,96 L484,96 L484,137 L370,137 L370,96 Z" /></clipPath>
<path d="M377,98 C374.2385864,98 372,100.2385712 372,103 L372,129 C372,131.7614288 374.2385864,134 377,134 L476,134 C478.7614136,134 481,131.7614288 481,129 L481,103 C481,100.2385712 478.7614136,98 476,98 Z M377,98" style="fill:rgb(220,230,242);stroke:none" clip-path="url(#clip12)" />
<clipPath id="clip13"><path d="M370,96 L484,96 L484,137 L370,137 L370,96 Z" /></clipPath>
<path d="M377,98 C374.2385864,98 372,100.2385712 372,103 L372,129 C372,131.7614288 374.2385864,134 377,134 L476,134 C478.7614136,134 481,131.7614288 481,129 L481,103 C481,100.2385712 478.7614136,98 476,98 Z M377,98" style="fill:none;stroke:rgb(85,142,213);stroke-width:2" clip-path="url(#clip13)" />
<clipPath id="clip14"><path d="M384,105 L470,105 L470,128 L384,128 L384,105 Z" /></clipPath>
<path d="M392.25,119.5786133 L387.0766602,119.5786133 L387.0766602,110.2983398 L392.25,110.2983398 L392.25,111.2568359 L388.1557617,111.2568359 L388.1557617,114.246582 L392.0024414,114.246582 L392.0024414,115.1987305 L388.1557617,115.1987305 L388.1557617,118.6137695 L392.25,118.6137695 Z M395.59375,116.0175781 L393.175293,112.621582 L394.375,112.621582 L396.2094727,115.2875977 L398.0375977,112.621582 L399.2246094,112.621582 L396.8061523,116.0175781 L399.3515625,119.5786133 L398.1582031,119.5786133 L396.2094727,116.7602539 L394.2416992,119.5786133 L393.0483398,119.5786133 Z M404.1552734,119.7055664 C403.7024536,119.7055664 403.2888184,119.6219864 402.9143066,119.454834 C402.5397949,119.2876816 402.2255859,119.0306015 401.9716797,118.6835938 L401.8955078,118.6835938 C401.9462891,119.0898438 401.9716797,119.4749298 401.9716797,119.8388672 L401.9716797,122.7016602 L400.9179688,122.7016602 L400.9179688,112.621582 L401.7749023,112.621582 L401.9208984,113.5737305 L401.9716797,113.5737305 C402.2424927,113.1928711 402.5578003,112.9178085 402.9174805,112.7485352 C403.2771606,112.5792618 403.6897583,112.4946289 404.1552734,112.4946289 C405.0778198,112.4946289 405.7897949,112.8098907 406.2912598,113.4404297 C406.7927246,114.0709686 407.043457,114.9553986 407.043457,116.09375 C407.043457,117.2363358 406.7885132,118.1239395 406.2785645,118.7565918 C405.7686157,119.3892441 405.0608826,119.7055664 404.1552734,119.7055664 Z M404.0029297,113.3896484 C403.2919922,113.3896484 402.777832,113.5864258 402.4604492,113.9799805 C402.1430664,114.3735352 401.9801636,114.9998322 401.9716797,115.8588867 L401.9716797,116.09375 C401.9716797,117.0712967 402.1345825,117.7705841 402.4604492,118.1916504 C402.7863159,118.6127167 403.3088989,118.8232422 404.0283203,118.8232422 C404.6292419,118.8232422 405.1000366,118.5799179 405.4406738,118.0932617 C405.781311,117.6066055 405.9516602,116.9358749 405.9516602,116.0810547 C405.9516602,115.2135391 405.781311,114.5480957 405.4406738,114.0847168 C405.1000366,113.6213379 404.6207886,113.3896484 404.0029297,113.3896484 Z M411.8569336,119.7055664 C410.8286133,119.7055664 410.0171814,119.3924179 409.4226074,118.7661133 C408.8280334,118.1398087 408.5307617,117.2701874 408.5307617,116.1572266 C408.5307617,115.0358047 408.8068848,114.1450195 409.3591309,113.4848633 C409.911377,112.824707 410.6529846,112.4946289 411.5839844,112.4946289 C412.4557495,112.4946289 413.1455078,112.7813263 413.6533203,113.3547363 C414.1611328,113.9281464 414.4150391,114.6845627 414.4150391,115.6240234 L414.4150391,116.2905273 L409.6225586,116.2905273 C409.6437378,117.1072617 409.8500366,117.727211 410.2414551,118.1503906 C410.6328735,118.5735703 411.184082,118.7851563 411.8950195,118.7851563 C412.644043,118.7851563 413.3845825,118.6285858 414.1166992,118.3154297 L414.1166992,119.2548828 C413.7443237,119.4156876 413.3920288,119.5310059 413.0598145,119.6008301 C412.7276001,119.6706543 412.3266602,119.7055664 411.8569336,119.7055664 Z M411.5712891,113.3769531 C411.0126953,113.3769531 410.5673218,113.5589142 410.2351074,113.9228516 C409.9028931,114.2867889 409.7072144,114.7903595 409.6479492,115.4335938 L413.2851563,115.4335938 C413.2851563,114.7692032 413.1370239,114.2603378 412.8408203,113.9069824 C412.5446167,113.553627 412.1214294,113.3769531 411.5712891,113.3769531 Z M419.0917969,112.4946289 C419.4006958,112.4946289 419.6779175,112.5200195 419.9233398,112.5708008 L419.7773438,113.5483398 C419.489563,113.4848633 419.2356567,113.453125 419.015625,113.453125 C418.4527893,113.453125 417.9714355,113.6816406 417.5715332,114.1386719 C417.1716309,114.5957031 416.9716797,115.1648712 416.9716797,115.8461914 L416.9716797,119.5786133 L415.9179688,119.5786133 L415.9179688,112.621582 L416.7875977,112.621582 L416.9082031,113.9101563 L416.9589844,113.9101563 C417.2171021,113.4573517 417.5281372,113.1082382 417.8920898,112.862793 C418.2560425,112.6173477 418.6559448,112.4946289 419.0917969,112.4946289 Z M423.1650391,118.8359375 C423.3512573,118.8359375 423.5310669,118.8221817 423.7045898,118.7946777 C423.8781128,118.7671738 424.015625,118.7386093 424.1171875,118.7089844 L424.1171875,119.5151367 C424.0029297,119.5701523 423.8347168,119.6156387 423.6125488,119.6516113 C423.3903809,119.6875839 423.1904297,119.7055664 423.0126953,119.7055664 C421.6669922,119.7055664 420.9941406,118.9967499 420.9941406,117.5791016 L420.9941406,113.4404297 L419.9975586,113.4404297 L419.9975586,112.9326172 L420.9941406,112.4946289 L421.4384766,111.0092773 L422.0478516,111.0092773 L422.0478516,112.621582 L424.0664063,112.621582 L424.0664063,113.4404297 L422.0478516,113.4404297 L422.0478516,117.534668 C422.0478516,117.9536133 422.1472778,118.2752304 422.3461914,118.4995117 C422.545105,118.723793 422.8180542,118.8359375 423.1650391,118.8359375 Z M434.9609375,113.0024414 C434.9609375,113.9419022 434.6403809,114.6644669 433.9992676,115.170166 C433.3581543,115.6758652 432.440918,115.9287109 431.2475586,115.9287109 L430.1557617,115.9287109 L430.1557617,119.5786133 L429.0766602,119.5786133 L429.0766602,110.2983398 L431.4824219,110.2983398 C433.8014526,110.2983398 434.9609375,111.1996994 434.9609375,113.0024414 Z M430.1557617,115.0019531 L431.1269531,115.0019531 C432.0833435,115.0019531 432.7752075,114.847496 433.2026367,114.5385742 C433.6300659,114.2296524 433.84375,113.7345428 433.84375,113.0532227 C433.84375,112.4396133 433.6427612,111.9825897 433.2407227,111.6821289 C432.8386841,111.3816681 432.2124023,111.2314453 431.3618164,111.2314453 L430.1557617,111.2314453 Z M442.9228516,116.09375 C442.9228516,117.2278671 442.637207,118.1133575 442.065918,118.7502441 C441.4946289,119.3871307 440.7054138,119.7055664 439.6982422,119.7055664 C439.0761719,119.7055664 438.5239258,119.5595703 438.0415039,119.2675781 C437.559082,118.9755859 437.1867065,118.5566406 436.9243164,118.0107422 C436.6619263,117.4648438 436.5307617,116.8258514 436.5307617,116.09375 C436.5307617,114.9596329 436.81427,114.0762558 437.3813477,113.4436035 C437.9484253,112.8109512 438.7355042,112.4946289 439.7426758,112.4946289 C440.7160034,112.4946289 441.4893188,112.8183594 442.0627441,113.4658203 C442.6361694,114.1132813 442.9228516,114.9892502 442.9228516,116.09375 Z M437.6225586,116.09375 C437.6225586,116.9824295 437.800293,117.6595001 438.1557617,118.125 C438.5112305,118.5904999 439.033844,118.8232422 439.7236328,118.8232422 C440.4134216,118.8232422 440.9370728,118.5915527 441.2946777,118.1281738 C441.6522827,117.6647949 441.8310547,116.9866562 441.8310547,116.09375 C441.8310547,115.2093048 441.6522827,114.5375214 441.2946777,114.0783691 C440.9370728,113.6192169 440.4091797,113.3896484 439.7109375,113.3896484 C439.0211487,113.3896484 438.5006714,113.6160431 438.1494141,114.0688477 C437.7981567,114.5216522 437.6225586,115.1966095 437.6225586,116.09375 Z M450.5991211,119.5786133 L449.3232422,115.4970703 C449.2428589,115.2473907 449.0925903,114.6803436 448.8725586,113.7958984 L448.8217773,113.7958984 C448.6525269,114.5364609 448.5043945,115.1077423 448.3774414,115.5097656 L447.0634766,119.5786133 L445.8447266,119.5786133 L443.9467773,112.621582 L445.0512695,112.621582 C445.4998169,114.3693085 445.8415527,115.7001877 446.076416,116.6142578 C446.3112793,117.5283279 446.4456177,118.144043 446.4794922,118.4614258 L446.5302734,118.4614258 C446.5768433,118.2202148 446.6519165,117.9081268 446.7556152,117.5251465 C446.859314,117.1421661 446.9492188,116.8385391 447.0253906,116.6142578 L448.3012695,112.621582 L449.4438477,112.621582 L450.6879883,116.6142578 C450.9249878,117.3421249 451.0857544,117.9536133 451.1704102,118.4487305 L451.2211914,118.4487305 C451.2380981,118.2963867 451.2836304,118.0615234 451.357666,117.7441406 C451.4317017,117.4267578 451.8728638,115.7192535 452.6811523,112.621582 L453.7729492,112.621582 L451.8496094,119.5786133 Z M457.8569336,119.7055664 C456.8286133,119.7055664 456.0171814,119.3924179 455.4226074,118.7661133 C454.8280334,118.1398087 454.5307617,117.2701874 454.5307617,116.1572266 C454.5307617,115.0358047 454.8068848,114.1450195 455.3591309,113.4848633 C455.911377,112.824707 456.6529846,112.4946289 457.5839844,112.4946289 C458.4557495,112.4946289 459.1455078,112.7813263 459.6533203,113.3547363 C460.1611328,113.9281464 460.4150391,114.6845627 460.4150391,115.6240234 L460.4150391,116.2905273 L455.6225586,116.2905273 C455.6437378,117.1072617 455.8500366,117.727211 456.2414551,118.1503906 C456.6328735,118.5735703 457.184082,118.7851563 457.8950195,118.7851563 C458.644043,118.7851563 459.3845825,118.6285858 460.1166992,118.3154297 L460.1166992,119.2548828 C459.7443237,119.4156876 459.3920288,119.5310059 459.0598145,119.6008301 C458.7276001,119.6706543 458.3266602,119.7055664 457.8569336,119.7055664 Z M457.5712891,113.3769531 C457.0126953,113.3769531 456.5673218,113.5589142 456.2351074,113.9228516 C455.9028931,114.2867889 455.7072144,114.7903595 455.6479492,115.4335938 L459.2851563,115.4335938 C459.2851563,114.7692032 459.1370239,114.2603378 458.8408203,113.9069824 C458.5446167,113.553627 458.1214294,113.3769531 457.5712891,113.3769531 Z M465.0917969,112.4946289 C465.4006958,112.4946289 465.6779175,112.5200195 465.9233398,112.5708008 L465.7773438,113.5483398 C465.489563,113.4848633 465.2356567,113.453125 465.015625,113.453125 C464.4527893,113.453125 463.9714355,113.6816406 463.5715332,114.1386719 C463.1716309,114.5957031 462.9716797,115.1648712 462.9716797,115.8461914 L462.9716797,119.5786133 L461.9179688,119.5786133 L461.9179688,112.621582 L462.7875977,112.621582 L462.9082031,113.9101563 L462.9589844,113.9101563 C463.2171021,113.4573517 463.5281372,113.1082382 463.8920898,112.862793 C464.2560425,112.6173477 464.6559448,112.4946289 465.0917969,112.4946289 Z M466.1074219,119.5786133" style="fill:rgb(23,55,94);stroke:none" clip-path="url(#clip14)" />
<clipPath id="clip15"><path d="M330,178 L468,178 L468,219 L330,219 L330,178 Z" /></clipPath>
<path d="M337,180 C334.2385864,180 332,182.2385712 332,185 L332,211 C332,213.7614288 334.2385864,216 337,216 L460,216 C462.7614136,216 465,213.7614288 465,211 L465,185 C465,182.2385712 462.7614136,180 460,180 Z M337,180" style="fill:rgb(220,230,242);stroke:none" clip-path="url(#clip15)" />
<clipPath id="clip16"><path d="M330,178 L468,178 L468,219 L330,219 L330,178 Z" /></clipPath>
<path d="M337,180 C334.2385864,180 332,182.2385712 332,185 L332,211 C332,213.7614288 334.2385864,216 337,216 L460,216 C462.7614136,216 465,213.7614288 465,211 L465,185 C465,182.2385712 462.7614136,180 460,180 Z M337,180" style="fill:none;stroke:rgb(85,142,213);stroke-width:2" clip-path="url(#clip16)" />
<clipPath id="clip17"><path d="M344,187 L454,187 L454,210 L344,210 L344,187 Z" /></clipPath>
<path d="M347.0766602,201.7087402 L347.0766602,192.4284668 L348.1557617,192.4284668 L348.1557617,200.7312012 L352.25,200.7312012 L352.25,201.7087402 Z M356.8569336,201.8356934 C355.8286133,201.8356934 355.0171814,201.5225525 354.4226074,200.8962402 C353.8280334,200.269928 353.5307617,199.4003143 353.5307617,198.2873535 C353.5307617,197.1659241 353.8068848,196.2751465 354.3591309,195.6149902 C354.911377,194.954834 355.6529846,194.6247559 356.5839844,194.6247559 C357.4557495,194.6247559 358.1455078,194.9114532 358.6533203,195.4848633 C359.1611328,196.0582733 359.4150391,196.8146973 359.4150391,197.7541504 L359.4150391,198.4206543 L354.6225586,198.4206543 C354.6437073,199.2373962 354.8500061,199.8573303 355.2414551,200.2805176 C355.6329041,200.7037048 356.184082,200.9152832 356.8950195,200.9152832 C357.644043,200.9152832 358.3845825,200.7587128 359.1166992,200.4455566 L359.1166992,201.3850098 C358.7442932,201.5458069 358.3920288,201.6611328 358.0598145,201.730957 C357.7276001,201.8007813 357.3266602,201.8356934 356.8569336,201.8356934 Z M356.5712891,195.5070801 C356.0126953,195.5070801 355.5673218,195.6890411 355.2351074,196.0529785 C354.9028931,196.4169159 354.7071838,196.9204865 354.6479492,197.5637207 L358.2851563,197.5637207 C358.2851563,196.8993225 358.1370544,196.3904724 357.8408203,196.0371094 C357.5445862,195.6837463 357.1214294,195.5070801 356.5712891,195.5070801 Z M366.6118164,194.751709 L366.6118164,195.4182129 L365.3232422,195.5705566 C365.4417419,195.7186584 365.5475159,195.912262 365.640625,196.1513672 C365.7337341,196.3904724 365.7802734,196.6602325 365.7802734,196.9606934 C365.7802734,197.6420135 365.5475464,198.185791 365.0820313,198.592041 C364.6165161,198.998291 363.9775391,199.201416 363.1650391,199.201416 C362.9576721,199.201416 362.763031,199.1844788 362.5810547,199.1506348 C362.1324768,199.3876038 361.9082031,199.6859436 361.9082031,200.0456543 C361.9082031,200.236084 361.9864807,200.3768005 362.1430664,200.4677734 C362.2996521,200.5587463 362.5683594,200.604248 362.9492188,200.604248 L364.1806641,200.604248 C364.9339294,200.604248 365.5126038,200.7629395 365.916748,201.0803223 C366.3208923,201.3977051 366.5229492,201.858963 366.5229492,202.4641113 C366.5229492,203.2342987 366.2140503,203.8214417 365.5961914,204.2255859 C364.9783325,204.6297302 364.0769958,204.8317871 362.8920898,204.8317871 C361.9822388,204.8317871 361.2808533,204.6625214 360.7878418,204.3239746 C360.2948303,203.9854279 360.0483398,203.5072479 360.0483398,202.8894043 C360.0483398,202.466217 360.1837463,202.1001892 360.4545898,201.7912598 C360.7254333,201.4823303 361.1062622,201.2728577 361.597168,201.1628418 C361.4194336,201.082428 361.2702637,200.9576111 361.1496582,200.7883301 C361.0290527,200.6190491 360.96875,200.4222717 360.96875,200.197998 C360.96875,199.9440918 361.0364685,199.7219238 361.171875,199.5314941 C361.3072815,199.3410645 361.5209961,199.1569824 361.8129883,198.979248 C361.4532776,198.8311462 361.1602478,198.5793457 360.9338379,198.223877 C360.707428,197.8684082 360.5942383,197.4621582 360.5942383,197.005127 C360.5942383,196.2434082 360.8227539,195.65625 361.2797852,195.2436523 C361.7368164,194.8310547 362.3842773,194.6247559 363.222168,194.6247559 C363.5861206,194.6247559 363.9140625,194.6670837 364.2060547,194.751709 Z M361.0639648,202.876709 C361.0639648,203.2533417 361.2226563,203.5389709 361.5400391,203.7336426 C361.8574219,203.9283142 362.3123169,204.0256348 362.9047852,204.0256348 C363.7892456,204.0256348 364.4440918,203.8934021 364.8693848,203.6289063 C365.2946777,203.3644104 365.5073242,203.0057831 365.5073242,202.5529785 C365.5073242,202.1763458 365.3909607,201.9150391 365.1582031,201.769043 C364.9254456,201.6230469 364.4874878,201.5500488 363.8442383,201.5500488 L362.5810547,201.5500488 C362.1028442,201.5500488 361.7304688,201.6643066 361.4638672,201.8928223 C361.1972656,202.1213379 361.0639648,202.449295 361.0639648,202.876709 Z M361.6352539,196.9797363 C361.6352539,197.4664001 361.7727661,197.8345642 362.0478516,198.0842285 C362.322937,198.3338928 362.7058716,198.4587402 363.1967773,198.4587402 C364.2250977,198.4587402 364.7392578,197.9593964 364.7392578,196.9606934 C364.7392578,195.9154358 364.21875,195.3928223 363.1777344,195.3928223 C362.6826172,195.3928223 362.3017578,195.526123 362.0351563,195.7927246 C361.7685547,196.0593262 361.6352539,196.4549866 361.6352539,196.9797363 Z M368.9716797,201.7087402 L367.9179688,201.7087402 L367.9179688,194.751709 L368.9716797,194.751709 Z M367.8291016,192.8664551 C367.8291016,192.6252441 367.8883362,192.4485779 368.0068359,192.3364258 C368.1253357,192.2242737 368.2734375,192.1682129 368.4511719,192.1682129 C368.6204529,192.1682129 368.766449,192.2253418 368.8891602,192.3395996 C369.0118713,192.4538574 369.0732422,192.6294861 369.0732422,192.8664551 C369.0732422,193.1034241 369.0118713,193.2801208 368.8891602,193.3964844 C368.766449,193.5128479 368.6204529,193.5710449 368.4511719,193.5710449 C368.2734375,193.5710449 368.1253357,193.5128479 368.0068359,193.3964844 C367.8883362,193.2801208 367.8291016,193.1034241 367.8291016,192.8664551 Z M373.1650391,200.9660645 C373.3512573,200.9660645 373.5310669,200.952301 373.7045898,200.9248047 C373.8781128,200.8973083 374.015625,200.8687439 374.1171875,200.8391113 L374.1171875,201.6452637 C374.0029297,201.7002869 373.8347168,201.7457581 373.6125488,201.7817383 C373.3903809,201.8177185 373.1904297,201.8356934 373.0126953,201.8356934 C371.6669922,201.8356934 370.9941406,201.1268768 370.9941406,199.7092285 L370.9941406,195.5705566 L369.9975586,195.5705566 L369.9975586,195.0627441 L370.9941406,194.6247559 L371.4384766,193.1394043 L372.0478516,193.1394043 L372.0478516,194.751709 L374.0664063,194.751709 L374.0664063,195.5705566 L372.0478516,195.5705566 L372.0478516,199.6647949 C372.0478516,200.0837402 372.1473083,200.405365 372.3461914,200.6296387 C372.5450745,200.8539124 372.8180237,200.9660645 373.1650391,200.9660645 Z M376.9716797,201.7087402 L375.9179688,201.7087402 L375.9179688,194.751709 L376.9716797,194.751709 Z M375.8291016,192.8664551 C375.8291016,192.6252441 375.8883667,192.4485779 376.0068359,192.3364258 C376.1253052,192.2242737 376.2734375,192.1682129 376.4511719,192.1682129 C376.6204224,192.1682129 376.7664185,192.2253418 376.8891602,192.3395996 C377.0119019,192.4538574 377.0732422,192.6294861 377.0732422,192.8664551 C377.0732422,193.1034241 377.0119019,193.2801208 376.8891602,193.3964844 C376.7664185,193.5128479 376.6204224,193.5710449 376.4511719,193.5710449 C376.2734375,193.5710449 376.1253052,193.5128479 376.0068359,193.3964844 C375.8883667,193.2801208 375.8291016,193.1034241 375.8291016,192.8664551 Z M387.7856445,201.7087402 L387.7856445,197.1828613 C387.7856445,196.6284943 387.6671753,196.212738 387.4301758,195.9355469 C387.1931763,195.6583557 386.8250122,195.5197754 386.3256836,195.5197754 C385.6697388,195.5197754 385.1852417,195.7080841 384.8720703,196.0847168 C384.5588989,196.4613495 384.4023438,197.0410919 384.4023438,197.8239746 L384.4023438,201.7087402 L383.3486328,201.7087402 L383.3486328,197.1828613 C383.3486328,196.6284943 383.2301636,196.212738 382.9931641,195.9355469 C382.7561646,195.6583557 382.3859253,195.5197754 381.8823242,195.5197754 C381.222168,195.5197754 380.7387085,195.7176056 380.4318848,196.1132813 C380.125061,196.5089569 379.9716797,197.1574707 379.9716797,198.0588379 L379.9716797,201.7087402 L378.9179688,201.7087402 L378.9179688,194.751709 L379.7749023,194.751709 L379.9462891,195.7038574 L379.9970703,195.7038574 C380.1959839,195.3653107 380.4763184,195.1008301 380.8381348,194.9104004 C381.1999512,194.7199707 381.6051636,194.6247559 382.0537109,194.6247559 C383.1412964,194.6247559 383.8522339,195.0183105 384.1865234,195.8054199 L384.2373047,195.8054199 C384.4446411,195.4414825 384.7451172,195.153717 385.1386719,194.9421387 C385.5322266,194.7305603 385.9807739,194.6247559 386.484375,194.6247559 C387.2714844,194.6247559 387.8607788,194.8268127 388.2521973,195.230957 C388.6436157,195.6351013 388.8393555,196.2814941 388.8393555,197.170166 L388.8393555,201.7087402 Z M395.1962891,201.7087402 L394.9868164,200.7185059 L394.9360352,200.7185059 C394.5890503,201.1543884 394.243103,201.4495544 393.8981934,201.6040039 C393.5532837,201.7584534 393.1227417,201.8356934 392.6064453,201.8356934 C391.9166565,201.8356934 391.3760376,201.657959 390.9846191,201.3024902 C390.5932007,200.9470215 390.3974609,200.44133 390.3974609,199.7854004 C390.3974609,198.3804474 391.5209961,197.6441345 393.7680664,197.576416 L394.9487305,197.5383301 L394.9487305,197.1066895 C394.9487305,196.560791 394.8312988,196.1577148 394.5964355,195.8974609 C394.3615723,195.637207 393.9860229,195.5070801 393.4697266,195.5070801 C392.8899536,195.5070801 392.2340698,195.6848145 391.5019531,196.0402832 L391.1782227,195.2341309 C391.5209961,195.0479431 391.8965454,194.901947 392.3049316,194.7961426 C392.7133179,194.6903381 393.1227417,194.6374512 393.5332031,194.6374512 C394.3626404,194.6374512 394.9772949,194.8215332 395.3771973,195.1896973 C395.7770996,195.5578613 395.9770508,196.1481934 395.9770508,196.9606934 L395.9770508,201.7087402 Z M392.815918,200.9660645 C393.4718628,200.9660645 393.9870605,200.7862244 394.3615723,200.4265137 C394.736084,200.066803 394.9233398,199.5632324 394.9233398,198.9157715 L394.9233398,198.2873535 L393.8696289,198.3317871 C393.0317383,198.3614197 392.4276733,198.4915466 392.057373,198.722168 C391.6870728,198.9527893 391.5019531,199.3114319 391.5019531,199.7980957 C391.5019531,200.1789551 391.6172485,200.4688416 391.8479004,200.6677246 C392.0785522,200.8666077 392.4011841,200.9660645 392.815918,200.9660645 Z M400.1650391,200.9660645 C400.3512573,200.9660645 400.5310669,200.952301 400.7045898,200.9248047 C400.8781128,200.8973083 401.015625,200.8687439 401.1171875,200.8391113 L401.1171875,201.6452637 C401.0029297,201.7002869 400.8347168,201.7457581 400.6125488,201.7817383 C400.3903809,201.8177185 400.1904297,201.8356934 400.0126953,201.8356934 C398.6669922,201.8356934 397.9941406,201.1268768 397.9941406,199.7092285 L397.9941406,195.5705566 L396.9975586,195.5705566 L396.9975586,195.0627441 L397.9941406,194.6247559 L398.4384766,193.1394043 L399.0478516,193.1394043 L399.0478516,194.751709 L401.0664063,194.751709 L401.0664063,195.5705566 L399.0478516,195.5705566 L399.0478516,199.6647949 C399.0478516,200.0837402 399.1472778,200.405365 399.3461914,200.6296387 C399.545105,200.8539124 399.8180542,200.9660645 400.1650391,200.9660645 Z M405.8569336,201.8356934 C404.8286133,201.8356934 404.0171814,201.5225525 403.4226074,200.8962402 C402.8280334,200.269928 402.5307617,199.4003143 402.5307617,198.2873535 C402.5307617,197.1659241 402.8068848,196.2751465 403.3591309,195.6149902 C403.911377,194.954834 404.6529846,194.6247559 405.5839844,194.6247559 C406.4557495,194.6247559 407.1455078,194.9114532 407.6533203,195.4848633 C408.1611328,196.0582733 408.4150391,196.8146973 408.4150391,197.7541504 L408.4150391,198.4206543 L403.6225586,198.4206543 C403.6437378,199.2373962 403.8500366,199.8573303 404.2414551,200.2805176 C404.6328735,200.7037048 405.184082,200.9152832 405.8950195,200.9152832 C406.644043,200.9152832 407.3845825,200.7587128 408.1166992,200.4455566 L408.1166992,201.3850098 C407.7443237,201.5458069 407.3920288,201.6611328 407.0598145,201.730957 C406.7276001,201.8007813 406.3266602,201.8356934 405.8569336,201.8356934 Z M405.5712891,195.5070801 C405.0126953,195.5070801 404.5673218,195.6890411 404.2351074,196.0529785 C403.9028931,196.4169159 403.7072144,196.9204865 403.6479492,197.5637207 L407.2851563,197.5637207 C407.2851563,196.8993225 407.1370239,196.3904724 406.8408203,196.0371094 C406.5446167,195.6837463 406.1214294,195.5070801 405.5712891,195.5070801 Z M418.9609375,195.1325684 C418.9609375,196.0720215 418.6403809,196.7945862 417.9992676,197.300293 C417.3581543,197.8059998 416.440918,198.0588379 415.2475586,198.0588379 L414.1557617,198.0588379 L414.1557617,201.7087402 L413.0766602,201.7087402 L413.0766602,192.4284668 L415.4824219,192.4284668 C417.8014526,192.4284668 418.9609375,193.329834 418.9609375,195.1325684 Z M414.1557617,197.1320801 L415.1269531,197.1320801 C416.0833435,197.1320801 416.7752075,196.9776306 417.2026367,196.6687012 C417.6300659,196.3597717 417.84375,195.8646698 417.84375,195.1833496 C417.84375,194.5697327 417.6427612,194.1127167 417.2407227,193.8122559 C416.8386841,193.511795 416.2124023,193.3615723 415.3618164,193.3615723 L414.1557617,193.3615723 Z M426.9228516,198.223877 C426.9228516,199.3580017 426.637207,200.2434845 426.065918,200.8803711 C425.4946289,201.5172577 424.7054138,201.8356934 423.6982422,201.8356934 C423.0761719,201.8356934 422.5239258,201.6896973 422.0415039,201.3977051 C421.559082,201.1057129 421.1867065,200.6867676 420.9243164,200.1408691 C420.6619263,199.5949707 420.5307617,198.9559784 420.5307617,198.223877 C420.5307617,197.0897522 420.81427,196.2063904 421.3813477,195.5737305 C421.9484253,194.9410706 422.7355042,194.6247559 423.7426758,194.6247559 C424.7160034,194.6247559 425.4893188,194.9484863 426.0627441,195.5959473 C426.6361694,196.2434082 426.9228516,197.1193848 426.9228516,198.223877 Z M421.6225586,198.223877 C421.6225586,199.1125488 421.800293,199.7896271 422.1557617,200.255127 C422.5112305,200.7206268 423.033844,200.9533691 423.7236328,200.9533691 C424.4134216,200.9533691 424.9370728,200.7216797 425.2946777,200.2583008 C425.6522827,199.7949219 425.8310547,199.1167908 425.8310547,198.223877 C425.8310547,197.3394318 425.6522827,196.6676483 425.2946777,196.2084961 C424.9370728,195.7493439 424.4091797,195.5197754 423.7109375,195.5197754 C423.0211487,195.5197754 422.5006714,195.74617 422.1494141,196.1989746 C421.7981567,196.6517792 421.6225586,197.3267365 421.6225586,198.223877 Z M434.5991211,201.7087402 L433.3232422,197.6271973 C433.2428589,197.377533 433.0925903,196.8104706 432.8725586,195.9260254 L432.8217773,195.9260254 C432.6525269,196.6665955 432.5043945,197.2378693 432.3774414,197.6398926 L431.0634766,201.7087402 L429.8447266,201.7087402 L427.9467773,194.751709 L429.0512695,194.751709 C429.4998169,196.4994354 429.8415527,197.8303223 430.076416,198.7443848 C430.3112793,199.6584473 430.4456177,200.2741699 430.4794922,200.5915527 L430.5302734,200.5915527 C430.5768433,200.3503418 430.6519165,200.0382538 430.7556152,199.6552734 C430.859314,199.2722931 430.9492188,198.9686584 431.0253906,198.7443848 L432.3012695,194.751709 L433.4438477,194.751709 L434.6879883,198.7443848 C434.9249878,199.4722595 435.0857544,200.0837402 435.1704102,200.5788574 L435.2211914,200.5788574 C435.2380981,200.4265137 435.2836304,200.1916504 435.357666,199.8742676 C435.4317017,199.5568848 435.8728638,197.8493805 436.6811523,194.751709 L437.7729492,194.751709 L435.8496094,201.7087402 Z M441.8569336,201.8356934 C440.8286133,201.8356934 440.0171814,201.5225525 439.4226074,200.8962402 C438.8280334,200.269928 438.5307617,199.4003143 438.5307617,198.2873535 C438.5307617,197.1659241 438.8068848,196.2751465 439.3591309,195.6149902 C439.911377,194.954834 440.6529846,194.6247559 441.5839844,194.6247559 C442.4557495,194.6247559 443.1455078,194.9114532 443.6533203,195.4848633 C444.1611328,196.0582733 444.4150391,196.8146973 444.4150391,197.7541504 L444.4150391,198.4206543 L439.6225586,198.4206543 C439.6437378,199.2373962 439.8500366,199.8573303 440.2414551,200.2805176 C440.6328735,200.7037048 441.184082,200.9152832 441.8950195,200.9152832 C442.644043,200.9152832 443.3845825,200.7587128 444.1166992,200.4455566 L444.1166992,201.3850098 C443.7443237,201.5458069 443.3920288,201.6611328 443.0598145,201.730957 C442.7276001,201.8007813 442.3266602,201.8356934 441.8569336,201.8356934 Z M441.5712891,195.5070801 C441.0126953,195.5070801 440.5673218,195.6890411 440.2351074,196.0529785 C439.9028931,196.4169159 439.7072144,196.9204865 439.6479492,197.5637207 L443.2851563,197.5637207 C443.2851563,196.8993225 443.1370239,196.3904724 442.8408203,196.0371094 C442.5446167,195.6837463 442.1214294,195.5070801 441.5712891,195.5070801 Z M449.0917969,194.6247559 C449.4006958,194.6247559 449.6779175,194.6501465 449.9233398,194.7009277 L449.7773438,195.6784668 C449.489563,195.6149902 449.2356567,195.583252 449.015625,195.583252 C448.4527893,195.583252 447.9714355,195.8117676 447.5715332,196.2687988 C447.1716309,196.7258301 446.9716797,197.2949982 446.9716797,197.9763184 L446.9716797,201.7087402 L445.9179688,201.7087402 L445.9179688,194.751709 L446.7875977,194.751709 L446.9082031,196.0402832 L446.9589844,196.0402832 C447.2171021,195.5874786 447.5281372,195.2383728 447.8920898,194.9929199 C448.2560425,194.747467 448.6559448,194.6247559 449.0917969,194.6247559 Z M450.1074219,201.7087402" style="fill:rgb(23,55,94);stroke:none" clip-path="url(#clip17)" />
<clipPath id="clip18"><path d="M20,156 L140,156 L140,197 L20,197 L20,156 Z" /></clipPath>
<path d="M27,158 C24.2385712,158 22,160.2385712 22,163 L22,189 C22,191.7614288 24.2385712,194 27,194 L132,194 C134.7614288,194 137,191.7614288 137,189 L137,163 C137,160.2385712 134.7614288,158 132,158 Z M27,158" style="fill:rgb(220,230,242);stroke:none" clip-path="url(#clip18)" />
<clipPath id="clip19"><path d="M20,156 L140,156 L140,197 L20,197 L20,156 Z" /></clipPath>
<path d="M27,158 C24.2385712,158 22,160.2385712 22,163 L22,189 C22,191.7614288 24.2385712,194 27,194 L132,194 C134.7614288,194 137,191.7614288 137,189 L137,163 C137,160.2385712 134.7614288,158 132,158 Z M27,158" style="fill:none;stroke:rgb(85,142,213);stroke-width:2" clip-path="url(#clip19)" />
<clipPath id="clip20"><path d="M34,165 L126,165 L126,188 L34,188 L34,165 Z" /></clipPath>
<path d="M38.1557617,177.515625 L38.1557617,181.375 L37.0766602,181.375 L37.0766602,172.0947266 L39.6220703,172.0947266 C40.7604218,172.0947266 41.6014709,172.3126526 42.1452637,172.7485352 C42.6890564,173.1844177 42.9609375,173.840332 42.9609375,174.7163086 C42.9609375,175.9435272 42.3388672,176.7729492 41.0947266,177.2045898 L43.6147461,181.375 L42.3388672,181.375 L40.0917969,177.515625 Z M38.1557617,176.5888672 L39.6347656,176.5888672 C40.3964844,176.5888672 40.9550781,176.4375916 41.3105469,176.1350098 C41.6660156,175.832428 41.84375,175.3785858 41.84375,174.7734375 C41.84375,174.1598206 41.6628418,173.7176208 41.3010254,173.4467773 C40.939209,173.1759338 40.3583984,173.0405273 39.5585938,173.0405273 L38.1557617,173.0405273 Z M47.8569336,181.5019531 C46.8286133,181.5019531 46.0171814,181.1888123 45.4226074,180.5625 C44.8280334,179.9361877 44.5307617,179.0665741 44.5307617,177.9536133 C44.5307617,176.8321838 44.8068848,175.9414063 45.3591309,175.28125 C45.911377,174.6210938 46.6529846,174.2910156 47.5839844,174.2910156 C48.4557343,174.2910156 49.1455078,174.577713 49.6533203,175.151123 C50.1611328,175.7245331 50.4150391,176.480957 50.4150391,177.4204102 L50.4150391,178.0869141 L45.6225586,178.0869141 C45.6437225,178.903656 45.8500214,179.5235901 46.2414551,179.9467773 C46.6328888,180.3699646 47.184082,180.581543 47.8950195,180.581543 C48.644043,180.581543 49.3845978,180.4249725 50.1166992,180.1118164 L50.1166992,181.0512695 C49.7443085,181.2120667 49.3920135,181.3273926 49.0598145,181.3972168 C48.7276154,181.467041 48.3266602,181.5019531 47.8569336,181.5019531 Z M47.5712891,175.1733398 C47.0126953,175.1733398 46.5673065,175.3553009 46.2351074,175.7192383 C45.9029083,176.0831757 45.7071991,176.5867462 45.6479492,177.2299805 L49.2851563,177.2299805 C49.2851563,176.5655823 49.1370392,176.0567322 48.8408203,175.7033691 C48.5446014,175.3500061 48.1214294,175.1733398 47.5712891,175.1733398 Z M57.5991211,181.375 L56.3232422,177.293457 C56.2428436,177.0437775 56.0926056,176.4767303 55.8725586,175.5922852 L55.8217773,175.5922852 C55.6525116,176.3328552 55.5043945,176.904129 55.3774414,177.3061523 L54.0634766,181.375 L52.8447266,181.375 L50.9467773,174.4179688 L52.0512695,174.4179688 C52.4998322,176.1656952 52.8415527,177.496582 53.076416,178.4106445 C53.3112793,179.324707 53.4456329,179.9404297 53.4794922,180.2578125 L53.5302734,180.2578125 C53.576828,180.0166016 53.6519318,179.7045135 53.7556152,179.3215332 C53.8592987,178.9385529 53.9492188,178.6349335 54.0253906,178.4106445 L55.3012695,174.4179688 L56.4438477,174.4179688 L57.6879883,178.4106445 C57.9249725,179.1385193 58.0857697,179.75 58.1704102,180.2451172 L58.2211914,180.2451172 C58.2381134,180.0927734 58.2836151,179.8579102 58.357666,179.5405273 C58.4317169,179.2231445 58.872879,177.5156403 59.6811523,174.4179688 L60.7729492,174.4179688 L58.8496094,181.375 Z M66.1962891,181.375 L65.9868164,180.3847656 L65.9360352,180.3847656 C65.589035,180.8206482 65.2430878,181.1158142 64.8981934,181.2702637 C64.553299,181.4247131 64.1227264,181.5019531 63.6064453,181.5019531 C62.9166565,181.5019531 62.3760529,181.3242188 61.9846191,180.96875 C61.5931854,180.6132813 61.3974609,180.1075897 61.3974609,179.4516602 C61.3974609,178.0467072 62.5209808,177.310379 64.7680664,177.2426758 L65.9487305,177.2045898 L65.9487305,176.7729492 C65.9487305,176.2270508 65.8312988,175.8239746 65.5964355,175.5637207 C65.3615723,175.3034668 64.9860077,175.1733398 64.4697266,175.1733398 C63.8899689,175.1733398 63.2340546,175.3510742 62.5019531,175.706543 L62.1782227,174.9003906 C62.5209961,174.7141876 62.8965607,174.5681915 63.3049316,174.4624023 C63.7133026,174.3566132 64.1227264,174.3037109 64.5332031,174.3037109 C65.3626404,174.3037109 65.9772949,174.487793 66.3771973,174.855957 C66.7770996,175.2241211 66.9770508,175.8144531 66.9770508,176.6269531 L66.9770508,181.375 Z M63.815918,180.6323242 C64.4718475,180.6323242 64.9870605,180.4524841 65.3615723,180.0927734 C65.736084,179.7330627 65.9233398,179.2294922 65.9233398,178.5820313 L65.9233398,177.9536133 L64.8696289,177.9980469 C64.0317383,178.0276642 63.4276581,178.1577911 63.057373,178.3884277 C62.687088,178.6190643 62.5019531,178.9776917 62.5019531,179.4643555 C62.5019531,179.8452148 62.6172638,180.1351013 62.8479004,180.3339844 C63.078537,180.5328674 63.4011993,180.6323242 63.815918,180.6323242 Z M72.0917969,174.2910156 C72.4007111,174.2910156 72.6779022,174.3164063 72.9233398,174.3671875 L72.7773438,175.3447266 C72.4895782,175.28125 72.235672,175.2495117 72.015625,175.2495117 C71.4527893,175.2495117 70.9714355,175.4780273 70.5715332,175.9350586 C70.1716309,176.3920898 69.9716797,176.9612579 69.9716797,177.6425781 L69.9716797,181.375 L68.9179688,181.375 L68.9179688,174.4179688 L69.7875977,174.4179688 L69.9082031,175.706543 L69.9589844,175.706543 C70.2171173,175.2537384 70.5281525,174.9046326 70.8920898,174.6591797 C71.2560272,174.4137268 71.6559296,174.2910156 72.0917969,174.2910156 Z M78.6533203,180.4418945 L78.5961914,180.4418945 C78.1095428,181.1486053 77.3816833,181.5019531 76.4125977,181.5019531 C75.5027618,181.5019531 74.7949982,181.190918 74.2893066,180.5688477 C73.7836151,179.9467773 73.5307617,179.0623474 73.5307617,177.9155273 C73.5307617,176.7687073 73.784668,175.8779297 74.2924805,175.2431641 C74.800293,174.6083984 75.5069885,174.2910156 76.4125977,174.2910156 C77.3562927,174.2910156 78.0799103,174.6337891 78.5834961,175.3193359 L78.6660156,175.3193359 L78.621582,174.8178711 L78.5961914,174.3291016 L78.5961914,171.4980469 L79.6499023,171.4980469 L79.6499023,181.375 L78.7929688,181.375 Z M76.5458984,180.6196289 C77.2653046,180.6196289 77.7868652,180.4239197 78.1105957,180.0324707 C78.4343262,179.6410217 78.5961914,179.0094452 78.5961914,178.1376953 L78.5961914,177.9155273 C78.5961914,176.9295197 78.4322052,176.2259979 78.104248,175.8049316 C77.7762909,175.3838654 77.2526093,175.1733398 76.5332031,175.1733398 C75.9153595,175.1733398 75.4424591,175.4134827 75.114502,175.8937988 C74.7865448,176.374115 74.6225586,177.0522461 74.6225586,177.9282227 C74.6225586,178.8168945 74.7854767,179.4876251 75.1113281,179.9404297 C75.4371796,180.3932343 75.9153595,180.6196289 76.5458984,180.6196289 Z M90.9609375,174.7988281 C90.9609375,175.7382813 90.6403809,176.4608459 89.9992676,176.9665527 C89.3581543,177.4722595 88.440918,177.7250977 87.2475586,177.7250977 L86.1557617,177.7250977 L86.1557617,181.375 L85.0766602,181.375 L85.0766602,172.0947266 L87.4824219,172.0947266 C89.8014374,172.0947266 90.9609375,172.9960938 90.9609375,174.7988281 Z M86.1557617,176.7983398 L87.1269531,176.7983398 C88.0833435,176.7983398 88.7752228,176.6438904 89.2026367,176.3349609 C89.6300507,176.0260315 89.84375,175.5309296 89.84375,174.8496094 C89.84375,174.2359924 89.642746,173.7789764 89.2407227,173.4785156 C88.8386993,173.1780548 88.2124023,173.027832 87.3618164,173.027832 L86.1557617,173.027832 Z M98.9228516,177.8901367 C98.9228516,179.0242615 98.637207,179.9097443 98.065918,180.5466309 C97.4946289,181.1835175 96.7054138,181.5019531 95.6982422,181.5019531 C95.0761719,181.5019531 94.5239258,181.355957 94.0415039,181.0639648 C93.559082,180.7719727 93.1866913,180.3530273 92.9243164,179.8071289 C92.6619415,179.2612305 92.5307617,178.6222382 92.5307617,177.8901367 C92.5307617,176.756012 92.8142853,175.8726501 93.3813477,175.2399902 C93.94841,174.6073303 94.7355042,174.2910156 95.7426758,174.2910156 C96.7159882,174.2910156 97.4893341,174.6147461 98.0627441,175.262207 C98.6361542,175.909668 98.9228516,176.7856445 98.9228516,177.8901367 Z M93.6225586,177.8901367 C93.6225586,178.7788086 93.800293,179.4558868 94.1557617,179.9213867 C94.5112305,180.3868866 95.033844,180.6196289 95.7236328,180.6196289 C96.4134216,180.6196289 96.937088,180.3879395 97.2946777,179.9245605 C97.6522675,179.4611816 97.8310547,178.7830505 97.8310547,177.8901367 C97.8310547,177.0056915 97.6522675,176.3339081 97.2946777,175.8747559 C96.937088,175.4156036 96.4091797,175.1860352 95.7109375,175.1860352 C95.0211487,175.1860352 94.5006561,175.4124298 94.1494141,175.8652344 C93.798172,176.3180389 93.6225586,176.9929962 93.6225586,177.8901367 Z M106.5991211,181.375 L105.3232422,177.293457 C105.2428436,177.0437775 105.0926056,176.4767303 104.8725586,175.5922852 L104.8217773,175.5922852 C104.6525116,176.3328552 104.5043945,176.904129 104.3774414,177.3061523 L103.0634766,181.375 L101.8447266,181.375 L99.9467773,174.4179688 L101.0512695,174.4179688 C101.4998322,176.1656952 101.8415527,177.496582 102.076416,178.4106445 C102.3112793,179.324707 102.4456329,179.9404297 102.4794922,180.2578125 L102.5302734,180.2578125 C102.576828,180.0166016 102.6519318,179.7045135 102.7556152,179.3215332 C102.8592987,178.9385529 102.9492188,178.6349335 103.0253906,178.4106445 L104.3012695,174.4179688 L105.4438477,174.4179688 L106.6879883,178.4106445 C106.9249725,179.1385193 107.0857697,179.75 107.1704102,180.2451172 L107.2211914,180.2451172 C107.2381134,180.0927734 107.2836151,179.8579102 107.357666,179.5405273 C107.4317169,179.2231445 107.872879,177.5156403 108.6811523,174.4179688 L109.7729492,174.4179688 L107.8496094,181.375 Z M113.8569336,181.5019531 C112.8286133,181.5019531 112.0171814,181.1888123 111.4226074,180.5625 C110.8280334,179.9361877 110.5307617,179.0665741 110.5307617,177.9536133 C110.5307617,176.8321838 110.8068848,175.9414063 111.3591309,175.28125 C111.911377,174.6210938 112.6529846,174.2910156 113.5839844,174.2910156 C114.4557343,174.2910156 115.1455078,174.577713 115.6533203,175.151123 C116.1611328,175.7245331 116.4150391,176.480957 116.4150391,177.4204102 L116.4150391,178.0869141 L111.6225586,178.0869141 C111.6437225,178.903656 111.8500214,179.5235901 112.2414551,179.9467773 C112.6328888,180.3699646 113.184082,180.581543 113.8950195,180.581543 C114.644043,180.581543 115.3845978,180.4249725 116.1166992,180.1118164 L116.1166992,181.0512695 C115.7443085,181.2120667 115.3920135,181.3273926 115.0598145,181.3972168 C114.7276154,181.467041 114.3266602,181.5019531 113.8569336,181.5019531 Z M113.5712891,175.1733398 C113.0126953,175.1733398 112.5673065,175.3553009 112.2351074,175.7192383 C111.9029083,176.0831757 111.7071991,176.5867462 111.6479492,177.2299805 L115.2851563,177.2299805 C115.2851563,176.5655823 115.1370392,176.0567322 114.8408203,175.7033691 C114.5446014,175.3500061 114.1214294,175.1733398 113.5712891,175.1733398 Z M121.0917969,174.2910156 C121.4007187,174.2910156 121.6778946,174.3164063 121.9233398,174.3671875 L121.7773438,175.3447266 C121.4895782,175.28125 121.2356796,175.2495117 121.015625,175.2495117 C120.4527969,175.2495117 119.9714355,175.4780273 119.5715332,175.9350586 C119.1716309,176.3920898 118.9716797,176.9612579 118.9716797,177.6425781 L118.9716797,181.375 L117.9179688,181.375 L117.9179688,174.4179688 L118.7875977,174.4179688 L118.9082031,175.706543 L118.9589844,175.706543 C119.2171249,175.2537384 119.5281525,174.9046326 119.8920898,174.6591797 C120.2560272,174.4137268 120.6559219,174.2910156 121.0917969,174.2910156 Z M122.1074219,181.375" style="fill:rgb(23,55,94);stroke:none" clip-path="url(#clip20)" />
<clipPath id="clip21"><path d="M14,36 L140,36 L140,77 L14,77 L14,36 Z" /></clipPath>
<path d="M21,38 C18.2385712,38 16,40.2385712 16,43 L16,69 C16,71.7614288 18.2385712,74 21,74 L132,74 C134.7614288,74 137,71.7614288 137,69 L137,43 C137,40.2385712 134.7614288,38 132,38 Z M21,38" style="fill:rgb(220,230,242);stroke:none" clip-path="url(#clip21)" />
<clipPath id="clip22"><path d="M14,36 L140,36 L140,77 L14,77 L14,36 Z" /></clipPath>
<path d="M21,38 C18.2385712,38 16,40.2385712 16,43 L16,69 C16,71.7614288 18.2385712,74 21,74 L132,74 C134.7614288,74 137,71.7614288 137,69 L137,43 C137,40.2385712 134.7614288,38 132,38 Z M21,38" style="fill:none;stroke:rgb(85,142,213);stroke-width:2" clip-path="url(#clip22)" />
<clipPath id="clip23"><path d="M28,45 L126,45 L126,68 L28,68 L28,45 Z" /></clipPath>
<path d="M35.2915039,52.7580566 C34.271637,52.7580566 33.4665527,53.0976524 32.8762207,53.7768555 C32.2858887,54.4560585 31.9907227,55.3859787 31.9907227,56.5666504 C31.9907227,57.7811737 32.2752991,58.7195587 32.8444824,59.3818359 C33.4136658,60.0441132 34.2250977,60.3752441 35.2788086,60.3752441 C35.9262695,60.3752441 36.6647034,60.258873 37.4941406,60.026123 L37.4941406,60.9719238 C36.8509064,61.2131348 36.0574646,61.3337402 35.1137695,61.3337402 C33.7469025,61.3337402 32.6921387,60.9190292 31.9494629,60.0895996 C31.2067871,59.26017 30.8354492,58.0816307 30.8354492,56.5539551 C30.8354492,55.5975685 31.0142365,54.7596893 31.3718262,54.0402832 C31.7294159,53.3208771 32.2456818,52.7665215 32.9206543,52.3771973 C33.5956268,51.9878693 34.3901367,51.7932129 35.3041992,51.7932129 C36.2775116,51.7932129 37.1280823,51.9709473 37.855957,52.326416 L37.3989258,53.2531738 C36.6964417,52.9230957 35.993988,52.7580566 35.2915039,52.7580566 Z M45.1640625,57.7219238 C45.1640625,58.8560448 44.878418,59.7415314 44.3071289,60.378418 C43.7358398,61.0153046 42.9466248,61.3337402 41.9394531,61.3337402 C41.3173828,61.3337402 40.7651367,61.1877441 40.2827148,60.895752 C39.800293,60.6037598 39.4279022,60.1848183 39.1655273,59.638916 C38.9031525,59.0930138 38.7719727,58.4540253 38.7719727,57.7219238 C38.7719727,56.5878029 39.0554962,55.7044296 39.6225586,55.0717773 C40.189621,54.4391251 40.9767151,54.1228027 41.9838867,54.1228027 C42.9571991,54.1228027 43.730545,54.4465294 44.3039551,55.0939941 C44.8773651,55.7414589 45.1640625,56.6174278 45.1640625,57.7219238 Z M39.8637695,57.7219238 C39.8637695,58.6105995 40.0415039,59.2876778 40.3969727,59.7531738 C40.7524414,60.2186699 41.2750549,60.451416 41.9648438,60.451416 C42.6546326,60.451416 43.178299,60.2197304 43.5358887,59.7563477 C43.8934784,59.2929649 44.0722656,58.6148338 44.0722656,57.7219238 C44.0722656,56.8374786 43.8934784,56.1656914 43.5358887,55.706543 C43.178299,55.2473946 42.6503906,55.0178223 41.9521484,55.0178223 C41.2623596,55.0178223 40.7418671,55.2442207 40.390625,55.6970215 C40.0393829,56.1498222 39.8637695,56.8247833 39.8637695,57.7219238 Z M50.0981445,61.3337402 C49.0698242,61.3337402 48.2583923,61.0205917 47.6638184,60.3942871 C47.0692444,59.7679825 46.7719727,58.8983612 46.7719727,57.7854004 C46.7719727,56.6639748 47.0480957,55.7731972 47.6003418,55.1130371 C48.1525879,54.452877 48.8941956,54.1228027 49.8251953,54.1228027 C50.6969452,54.1228027 51.3867188,54.4095039 51.8945313,54.9829102 C52.4023438,55.5563164 52.65625,56.3127403 52.65625,57.2521973 L52.65625,57.9187012 L47.8637695,57.9187012 C47.8849335,58.7354355 48.0912323,59.3553848 48.482666,59.7785645 C48.8740997,60.2017441 49.425293,60.4133301 50.1362305,60.4133301 C50.8852539,60.4133301 51.6258087,60.2567558 52.3579102,59.9436035 L52.3579102,60.8830566 C51.9855194,61.0438652 51.6332245,61.1591797 51.3010254,61.2290039 C50.9688263,61.2988281 50.5678711,61.3337402 50.0981445,61.3337402 Z M49.8125,55.005127 C49.2539063,55.005127 48.8085175,55.1870918 48.4763184,55.5510254 C48.1441193,55.914959 47.94841,56.4185333 47.8891602,57.0617676 L51.5263672,57.0617676 C51.5263672,56.397377 51.3782501,55.8885117 51.0820313,55.5351563 C50.7858124,55.1818008 50.3626404,55.005127 49.8125,55.005127 Z M57.3330078,54.1228027 C57.641922,54.1228027 57.9191132,54.1481934 58.1645508,54.1989746 L58.0185547,55.1765137 C57.7307892,55.1130371 57.4768829,55.0812988 57.2568359,55.0812988 C56.6940002,55.0812988 56.2126465,55.3098106 55.8127441,55.7668457 C55.4128418,56.2238808 55.2128906,56.793045 55.2128906,57.4743652 L55.2128906,61.2067871 L54.1591797,61.2067871 L54.1591797,54.2497559 L55.0288086,54.2497559 L55.1494141,55.5383301 L55.2001953,55.5383301 C55.4583282,55.0855293 55.7693634,54.736412 56.1333008,54.4909668 C56.4972382,54.2455215 56.8971405,54.1228027 57.3330078,54.1228027 Z M61.9394531,61.3337402 C60.9322815,61.3337402 60.1525879,61.0237656 59.6003418,60.4038086 C59.0480957,59.7838516 58.7719727,58.906826 58.7719727,57.7727051 C58.7719727,56.608963 59.0523224,55.7097206 59.6130371,55.0749512 C60.1737518,54.4401817 60.9724884,54.1228027 62.0092773,54.1228027 C62.3435822,54.1228027 62.6779022,54.1587715 63.012207,54.2307129 C63.3465118,54.3026543 63.6088867,54.3872871 63.7993164,54.4846191 L63.4755859,55.3796387 C63.2428436,55.286541 62.9889374,55.2093086 62.7138672,55.1479492 C62.438797,55.0865898 62.1954803,55.0559082 61.9838867,55.0559082 C60.5704651,55.0559082 59.8637695,55.9572678 59.8637695,57.7600098 C59.8637695,58.61483 60.0362091,59.2707481 60.3811035,59.7277832 C60.7259979,60.1848183 61.236969,60.4133301 61.9140625,60.4133301 C62.4938202,60.4133301 63.0883789,60.2884941 63.6977539,60.0388184 L63.6977539,60.9719238 C63.232254,61.2131348 62.6461639,61.3337402 61.9394531,61.3337402 Z M66.2128906,61.2067871 L65.1591797,61.2067871 L65.1591797,54.2497559 L66.2128906,54.2497559 Z M65.0703125,52.364502 C65.0703125,52.123291 65.1295624,51.9466171 65.2480469,51.8344727 C65.3665314,51.7223282 65.5146484,51.6662598 65.6923828,51.6662598 C65.8616486,51.6662598 66.0076447,51.7233887 66.1303711,51.8376465 C66.2530975,51.9519043 66.3144531,52.1275215 66.3144531,52.364502 C66.3144531,52.6014824 66.2530975,52.7781563 66.1303711,52.8945313 C66.0076447,53.0109062 65.8616486,53.0690918 65.6923828,53.0690918 C65.5146484,53.0690918 65.3665314,53.0109062 65.2480469,52.8945313 C65.1295624,52.7781563 65.0703125,52.6014824 65.0703125,52.364502 Z M69.6826172,61.2067871 L67.0419922,54.2497559 L68.171875,54.2497559 L69.6699219,58.3757324 C70.0084686,59.34058 70.2073517,59.966877 70.2666016,60.2546387 L70.3173828,60.2546387 C70.3639374,60.0303535 70.5109863,59.5659218 70.7585449,58.8613281 C71.0061035,58.1567345 71.5615234,56.6195602 72.4248047,54.2497559 L73.5546875,54.2497559 L70.9140625,61.2067871 Z M78.0981445,61.3337402 C77.0698242,61.3337402 76.2583923,61.0205917 75.6638184,60.3942871 C75.0692444,59.7679825 74.7719727,58.8983612 74.7719727,57.7854004 C74.7719727,56.6639748 75.0480957,55.7731972 75.6003418,55.1130371 C76.1525879,54.452877 76.8941956,54.1228027 77.8251953,54.1228027 C78.6969452,54.1228027 79.3867188,54.4095039 79.8945313,54.9829102 C80.4023438,55.5563164 80.65625,56.3127403 80.65625,57.2521973 L80.65625,57.9187012 L75.8637695,57.9187012 C75.8849335,58.7354355 76.0912323,59.3553848 76.482666,59.7785645 C76.8740997,60.2017441 77.425293,60.4133301 78.1362305,60.4133301 C78.8852539,60.4133301 79.6258087,60.2567558 80.3579102,59.9436035 L80.3579102,60.8830566 C79.9855194,61.0438652 79.6332245,61.1591797 79.3010254,61.2290039 C78.9688263,61.2988281 78.5678711,61.3337402 78.0981445,61.3337402 Z M77.8125,55.005127 C77.2539063,55.005127 76.8085175,55.1870918 76.4763184,55.5510254 C76.1441193,55.914959 75.94841,56.4185333 75.8891602,57.0617676 L79.5263672,57.0617676 C79.5263672,56.397377 79.3782501,55.8885117 79.0820313,55.5351563 C78.7858124,55.1818008 78.3626404,55.005127 77.8125,55.005127 Z M91.2021484,54.6306152 C91.2021484,55.5700722 90.8815918,56.2926407 90.2404785,56.7983398 C89.5993652,57.304039 88.6821289,57.5568848 87.4887695,57.5568848 L86.3969727,57.5568848 L86.3969727,61.2067871 L85.3178711,61.2067871 L85.3178711,51.9265137 L87.7236328,51.9265137 C90.0426483,51.9265137 91.2021484,52.8278732 91.2021484,54.6306152 Z M86.3969727,56.630127 L87.3681641,56.630127 C88.3245544,56.630127 89.0164337,56.4756699 89.4438477,56.166748 C89.8712616,55.8578262 90.0849609,55.3627167 90.0849609,54.6813965 C90.0849609,54.0677872 89.8839569,53.6107597 89.4819336,53.3103027 C89.0799103,53.0098457 88.4536133,52.8596191 87.6030273,52.8596191 L86.3969727,52.8596191 Z M99.1640625,57.7219238 C99.1640625,58.8560448 98.878418,59.7415314 98.3071289,60.378418 C97.7358398,61.0153046 96.9466248,61.3337402 95.9394531,61.3337402 C95.3173828,61.3337402 94.7651367,61.1877441 94.2827148,60.895752 C93.800293,60.6037598 93.4279022,60.1848183 93.1655273,59.638916 C92.9031525,59.0930138 92.7719727,58.4540253 92.7719727,57.7219238 C92.7719727,56.5878029 93.0554962,55.7044296 93.6225586,55.0717773 C94.189621,54.4391251 94.9767151,54.1228027 95.9838867,54.1228027 C96.9571991,54.1228027 97.730545,54.4465294 98.3039551,55.0939941 C98.8773651,55.7414589 99.1640625,56.6174278 99.1640625,57.7219238 Z M93.8637695,57.7219238 C93.8637695,58.6105995 94.0415039,59.2876778 94.3969727,59.7531738 C94.7524414,60.2186699 95.2750549,60.451416 95.9648438,60.451416 C96.6546326,60.451416 97.178299,60.2197304 97.5358887,59.7563477 C97.8934784,59.2929649 98.0722656,58.6148338 98.0722656,57.7219238 C98.0722656,56.8374786 97.8934784,56.1656914 97.5358887,55.706543 C97.178299,55.2473946 96.6503906,55.0178223 95.9521484,55.0178223 C95.2623596,55.0178223 94.7418671,55.2442207 94.390625,55.6970215 C94.0393829,56.1498222 93.8637695,56.8247833 93.8637695,57.7219238 Z M106.840332,61.2067871 L105.5644531,57.1252441 C105.4840546,56.8755684 105.3338165,56.3085175 105.1137695,55.4240723 L105.0629883,55.4240723 C104.8937225,56.1646347 104.7456055,56.73592 104.6186523,57.1379395 L103.3046875,61.2067871 L102.0859375,61.2067871 L100.1879883,54.2497559 L101.2924805,54.2497559 C101.7410431,55.9974861 102.0827637,57.3283653 102.317627,58.2424316 C102.5524902,59.156498 102.6868439,59.7722168 102.7207031,60.0895996 L102.7714844,60.0895996 C102.8180389,59.8483887 102.8931427,59.5362968 102.9968262,59.1533203 C103.1005096,58.7703438 103.1904297,58.4667168 103.2666016,58.2424316 L104.5424805,54.2497559 L105.6850586,54.2497559 L106.9291992,58.2424316 C107.1661835,58.9702988 107.3269806,59.5817833 107.4116211,60.0769043 L107.4624023,60.0769043 C107.4793243,59.9245605 107.524826,59.6896973 107.598877,59.3723145 C107.6729279,59.0549316 108.11409,57.3474274 108.9223633,54.2497559 L110.0141602,54.2497559 L108.0908203,61.2067871 Z M114.0981445,61.3337402 C113.0698242,61.3337402 112.2583923,61.0205917 111.6638184,60.3942871 C111.0692444,59.7679825 110.7719727,58.8983612 110.7719727,57.7854004 C110.7719727,56.6639748 111.0480957,55.7731972 111.6003418,55.1130371 C112.1525879,54.452877 112.8941956,54.1228027 113.8251953,54.1228027 C114.6969452,54.1228027 115.3867188,54.4095039 115.8945313,54.9829102 C116.4023438,55.5563164 116.65625,56.3127403 116.65625,57.2521973 L116.65625,57.9187012 L111.8637695,57.9187012 C111.8849335,58.7354355 112.0912323,59.3553848 112.482666,59.7785645 C112.8740997,60.2017441 113.425293,60.4133301 114.1362305,60.4133301 C114.8852539,60.4133301 115.6258087,60.2567558 116.3579102,59.9436035 L116.3579102,60.8830566 C115.9855194,61.0438652 115.6332245,61.1591797 115.3010254,61.2290039 C114.9688263,61.2988281 114.5678711,61.3337402 114.0981445,61.3337402 Z M113.8125,55.005127 C113.2539063,55.005127 112.8085175,55.1870918 112.4763184,55.5510254 C112.1441193,55.914959 111.94841,56.4185333 111.8891602,57.0617676 L115.5263672,57.0617676 C115.5263672,56.397377 115.3782501,55.8885117 115.0820313,55.5351563 C114.7858124,55.1818008 114.3626404,55.005127 113.8125,55.005127 Z M121.3330078,54.1228027 C121.6419296,54.1228027 121.9191055,54.1481934 122.1645508,54.1989746 L122.0185547,55.1765137 C121.7307892,55.1130371 121.4768906,55.0812988 121.2568359,55.0812988 C120.6940079,55.0812988 120.2126465,55.3098106 119.8127441,55.7668457 C119.4128418,56.2238808 119.2128906,56.793045 119.2128906,57.4743652 L119.2128906,61.2067871 L118.1591797,61.2067871 L118.1591797,54.2497559 L119.0288086,54.2497559 L119.1494141,55.5383301 L119.2001953,55.5383301 C119.4583359,55.0855293 119.7693634,54.736412 120.1333008,54.4909668 C120.4972382,54.2455215 120.8971329,54.1228027 121.3330078,54.1228027 Z M122.3486328,61.2067871" style="fill:rgb(23,55,94);stroke:none" clip-path="url(#clip23)" />
</svg>
